solid SHAPR3D_SOLID
facet normal 0.000000e+00 1.000000e+00 0.000000e+00
outer loop
vertex -5.000000e+01 0.000000e+00 1.000000e+02
vertex -5.000000e+01 0.000000e+00 0.000000e+00
vertex -1.000000e+02 0.000000e+00 0.000000e+00
endloop
endfacet
facet normal 0.000000e+00 1.000000e+00 0.000000e+00
outer loop
vertex -1.000000e+02 0.000000e+00 0.000000e+00
vertex -1.000000e+02 0.000000e+00 1.000000e+02
vertex -5.000000e+01 0.000000e+00 1.000000e+02
endloop
endfacet
facet normal 0.000000e+00 -0.000000e+00 -1.000000e+00
outer loop
vertex -4.700000e+01 1.000000e+01 0.000000e+00
vertex -4.700000e+01 -3.000000e+00 0.000000e+00
vertex -5.000000e+01 0.000000e+00 0.000000e+00
endloop
endfacet
facet normal 0.000000e+00 0.000000e+00 -1.000000e+00
outer loop
vertex -4.700000e+01 -3.000000e+00 0.000000e+00
vertex -1.030000e+02 -3.000000e+00 0.000000e+00
vertex -1.000000e+02 0.000000e+00 0.000000e+00
endloop
endfacet
facet normal 0.000000e+00 0.000000e+00 -1.000000e+00
outer loop
vertex -1.000000e+02 0.000000e+00 0.000000e+00
vertex -5.000000e+01 0.000000e+00 0.000000e+00
vertex -4.700000e+01 -3.000000e+00 0.000000e+00
endloop
endfacet
facet normal 0.000000e+00 0.000000e+00 -1.000000e+00
outer loop
vertex -1.030000e+02 1.000000e+01 0.000000e+00
vertex -1.000000e+02 1.000000e+01 0.000000e+00
vertex -1.000000e+02 0.000000e+00 0.000000e+00
endloop
endfacet
facet normal -0.000000e+00 0.000000e+00 -1.000000e+00
outer loop
vertex -1.000000e+02 0.000000e+00 0.000000e+00
vertex -1.030000e+02 -3.000000e+00 0.000000e+00
vertex -1.030000e+02 1.000000e+01 0.000000e+00
endloop
endfacet
facet normal 0.000000e+00 0.000000e+00 -1.000000e+00
outer loop
vertex -5.000000e+01 0.000000e+00 0.000000e+00
vertex -5.000000e+01 1.000000e+01 0.000000e+00
vertex -4.700000e+01 1.000000e+01 0.000000e+00
endloop
endfacet
facet normal 0.000000e+00 -1.000000e+00 0.000000e+00
outer loop
vertex -1.030000e+02 -3.000000e+00 1.000000e+02
vertex -1.030000e+02 -3.000000e+00 0.000000e+00
vertex -4.700000e+01 -3.000000e+00 0.000000e+00
endloop
endfacet
facet normal 0.000000e+00 -1.000000e+00 0.000000e+00
outer loop
vertex -4.700000e+01 -3.000000e+00 0.000000e+00
vertex -4.700000e+01 -3.000000e+00 1.000000e+02
vertex -1.030000e+02 -3.000000e+00 1.000000e+02
endloop
endfacet
facet normal 0.000000e+00 1.000000e+00 0.000000e+00
outer loop
vertex -1.000000e+02 1.000000e+01 0.000000e+00
vertex -1.030000e+02 1.000000e+01 0.000000e+00
vertex -1.030000e+02 1.000000e+01 5.000000e+00
endloop
endfacet
facet normal -0.000000e+00 1.000000e+00 0.000000e+00
outer loop
vertex -1.030000e+02 1.000000e+01 5.000000e+00
vertex -1.000000e+02 1.000000e+01 5.000000e+00
vertex -1.000000e+02 1.000000e+01 0.000000e+00
endloop
endfacet
facet normal 0.000000e+00 1.000000e+00 0.000000e+00
outer loop
vertex -4.700000e+01 1.000000e+01 0.000000e+00
vertex -5.000000e+01 1.000000e+01 0.000000e+00
vertex -5.000000e+01 1.000000e+01 5.000000e+00
endloop
endfacet
facet normal -0.000000e+00 1.000000e+00 0.000000e+00
outer loop
vertex -5.000000e+01 1.000000e+01 5.000000e+00
vertex -4.700000e+01 1.000000e+01 5.000000e+00
vertex -4.700000e+01 1.000000e+01 0.000000e+00
endloop
endfacet
facet normal 0.000000e+00 9.807853e-01 -1.950906e-01
outer loop
vertex -1.000000e+02 1.038060e+01 6.913417e+00
vertex -1.000000e+02 1.000000e+01 5.000000e+00
vertex -1.030000e+02 1.000000e+01 5.000000e+00
endloop
endfacet
facet normal 0.000000e+00 8.314698e-01 -5.555700e-01
outer loop
vertex -1.000000e+02 1.146447e+01 8.535534e+00
vertex -1.000000e+02 1.038060e+01 6.913417e+00
vertex -1.030000e+02 1.038060e+01 6.913417e+00
endloop
endfacet
facet normal 0.000000e+00 5.555705e-01 -8.314694e-01
outer loop
vertex -1.000000e+02 1.308658e+01 9.619398e+00
vertex -1.000000e+02 1.146447e+01 8.535534e+00
vertex -1.030000e+02 1.146447e+01 8.535534e+00
endloop
endfacet
facet normal 0.000000e+00 1.950900e-01 -9.807853e-01
outer loop
vertex -1.000000e+02 1.500000e+01 1.000000e+01
vertex -1.000000e+02 1.308658e+01 9.619398e+00
vertex -1.030000e+02 1.308658e+01 9.619398e+00
endloop
endfacet
facet normal 0.000000e+00 1.950900e-01 -9.807853e-01
outer loop
vertex -1.030000e+02 1.308658e+01 9.619398e+00
vertex -1.030000e+02 1.500000e+01 1.000000e+01
vertex -1.000000e+02 1.500000e+01 1.000000e+01
endloop
endfacet
facet normal 0.000000e+00 5.555705e-01 -8.314694e-01
outer loop
vertex -1.030000e+02 1.146447e+01 8.535534e+00
vertex -1.030000e+02 1.308658e+01 9.619398e+00
vertex -1.000000e+02 1.308658e+01 9.619398e+00
endloop
endfacet
facet normal 0.000000e+00 8.314698e-01 -5.555700e-01
outer loop
vertex -1.030000e+02 1.038060e+01 6.913417e+00
vertex -1.030000e+02 1.146447e+01 8.535534e+00
vertex -1.000000e+02 1.146447e+01 8.535534e+00
endloop
endfacet
facet normal 0.000000e+00 9.807853e-01 -1.950906e-01
outer loop
vertex -1.030000e+02 1.000000e+01 5.000000e+00
vertex -1.030000e+02 1.038060e+01 6.913417e+00
vertex -1.000000e+02 1.038060e+01 6.913417e+00
endloop
endfacet
facet normal 0.000000e+00 0.000000e+00 -1.000000e+00
outer loop
vertex -1.000000e+02 1.500000e+01 1.000000e+01
vertex -1.030000e+02 1.500000e+01 1.000000e+01
vertex -1.030000e+02 8.546605e+01 1.000000e+01
endloop
endfacet
facet normal 0.000000e+00 0.000000e+00 -1.000000e+00
outer loop
vertex -1.030000e+02 8.546605e+01 1.000000e+01
vertex -1.000000e+02 8.546605e+01 1.000000e+01
vertex -1.000000e+02 1.500000e+01 1.000000e+01
endloop
endfacet
facet normal 0.000000e+00 -1.950897e-01 -9.807854e-01
outer loop
vertex -1.000000e+02 8.737947e+01 9.619398e+00
vertex -1.000000e+02 8.546605e+01 1.000000e+01
vertex -1.030000e+02 8.546605e+01 1.000000e+01
endloop
endfacet
facet normal 0.000000e+00 -5.555705e-01 -8.314694e-01
outer loop
vertex -1.000000e+02 8.900159e+01 8.535534e+00
vertex -1.000000e+02 8.737947e+01 9.619398e+00
vertex -1.030000e+02 8.737947e+01 9.619398e+00
endloop
endfacet
facet normal 0.000000e+00 -8.314700e-01 -5.555696e-01
outer loop
vertex -1.000000e+02 9.008545e+01 6.913417e+00
vertex -1.000000e+02 8.900159e+01 8.535534e+00
vertex -1.030000e+02 8.900159e+01 8.535534e+00
endloop
endfacet
facet normal 0.000000e+00 -9.807855e-01 -1.950892e-01
outer loop
vertex -1.000000e+02 9.046605e+01 5.000000e+00
vertex -1.000000e+02 9.008545e+01 6.913417e+00
vertex -1.030000e+02 9.008545e+01 6.913417e+00
endloop
endfacet
facet normal 0.000000e+00 -9.807855e-01 -1.950892e-01
outer loop
vertex -1.030000e+02 9.008545e+01 6.913417e+00
vertex -1.030000e+02 9.046605e+01 5.000000e+00
vertex -1.000000e+02 9.046605e+01 5.000000e+00
endloop
endfacet
facet normal 0.000000e+00 -8.314700e-01 -5.555696e-01
outer loop
vertex -1.030000e+02 8.900159e+01 8.535534e+00
vertex -1.030000e+02 9.008545e+01 6.913417e+00
vertex -1.000000e+02 9.008545e+01 6.913417e+00
endloop
endfacet
facet normal 0.000000e+00 -5.555705e-01 -8.314694e-01
outer loop
vertex -1.030000e+02 8.737947e+01 9.619398e+00
vertex -1.030000e+02 8.900159e+01 8.535534e+00
vertex -1.000000e+02 8.900159e+01 8.535534e+00
endloop
endfacet
facet normal 0.000000e+00 -1.950897e-01 -9.807854e-01
outer loop
vertex -1.030000e+02 8.546605e+01 1.000000e+01
vertex -1.030000e+02 8.737947e+01 9.619398e+00
vertex -1.000000e+02 8.737947e+01 9.619398e+00
endloop
endfacet
facet normal 0.000000e+00 -1.000000e+00 0.000000e+00
outer loop
vertex -1.030000e+02 9.046605e+01 0.000000e+00
vertex -1.000000e+02 9.046605e+01 0.000000e+00
vertex -1.000000e+02 9.046605e+01 5.000000e+00
endloop
endfacet
facet normal -0.000000e+00 -1.000000e+00 0.000000e+00
outer loop
vertex -1.000000e+02 9.046605e+01 5.000000e+00
vertex -1.030000e+02 9.046605e+01 5.000000e+00
vertex -1.030000e+02 9.046605e+01 0.000000e+00
endloop
endfacet
facet normal -1.000000e+00 0.000000e+00 0.000000e+00
outer loop
vertex -1.030000e+02 1.030000e+02 1.000000e+02
vertex -1.030000e+02 8.546605e+01 1.000000e+01
vertex -1.030000e+02 1.500000e+01 1.000000e+01
endloop
endfacet
facet normal -1.000000e+00 0.000000e+00 0.000000e+00
outer loop
vertex -1.030000e+02 1.500000e+01 1.000000e+01
vertex -1.030000e+02 -3.000000e+00 1.000000e+02
vertex -1.030000e+02 1.030000e+02 1.000000e+02
endloop
endfacet
facet normal -1.000000e+00 0.000000e+00 0.000000e+00
outer loop
vertex -1.030000e+02 1.030000e+02 1.000000e+02
vertex -1.030000e+02 8.737947e+01 9.619398e+00
vertex -1.030000e+02 8.546605e+01 1.000000e+01
endloop
endfacet
facet normal -1.000000e+00 0.000000e+00 0.000000e+00
outer loop
vertex -1.030000e+02 -3.000000e+00 0.000000e+00
vertex -1.030000e+02 1.038060e+01 6.913417e+00
vertex -1.030000e+02 1.000000e+01 5.000000e+00
endloop
endfacet
facet normal -1.000000e+00 0.000000e+00 0.000000e+00
outer loop
vertex -1.030000e+02 -3.000000e+00 1.000000e+02
vertex -1.030000e+02 1.146447e+01 8.535534e+00
vertex -1.030000e+02 1.038060e+01 6.913417e+00
endloop
endfacet
facet normal -1.000000e+00 -0.000000e+00 0.000000e+00
outer loop
vertex -1.030000e+02 1.500000e+01 1.000000e+01
vertex -1.030000e+02 1.308658e+01 9.619398e+00
vertex -1.030000e+02 -3.000000e+00 1.000000e+02
endloop
endfacet
facet normal -1.000000e+00 -0.000000e+00 0.000000e+00
outer loop
vertex -1.030000e+02 1.038060e+01 6.913417e+00
vertex -1.030000e+02 -3.000000e+00 0.000000e+00
vertex -1.030000e+02 -3.000000e+00 1.000000e+02
endloop
endfacet
facet normal -1.000000e+00 0.000000e+00 0.000000e+00
outer loop
vertex -1.030000e+02 1.030000e+02 1.000000e+02
vertex -1.030000e+02 8.900159e+01 8.535534e+00
vertex -1.030000e+02 8.737947e+01 9.619398e+00
endloop
endfacet
facet normal -1.000000e+00 0.000000e+00 -0.000000e+00
outer loop
vertex -1.030000e+02 1.030000e+02 1.000000e+02
vertex -1.030000e+02 1.030000e+02 0.000000e+00
vertex -1.030000e+02 9.008545e+01 6.913417e+00
endloop
endfacet
facet normal -1.000000e+00 0.000000e+00 0.000000e+00
outer loop
vertex -1.030000e+02 1.030000e+02 0.000000e+00
vertex -1.030000e+02 9.046605e+01 0.000000e+00
vertex -1.030000e+02 9.046605e+01 5.000000e+00
endloop
endfacet
facet normal -1.000000e+00 -0.000000e+00 0.000000e+00
outer loop
vertex -1.030000e+02 1.308658e+01 9.619398e+00
vertex -1.030000e+02 1.146447e+01 8.535534e+00
vertex -1.030000e+02 -3.000000e+00 1.000000e+02
endloop
endfacet
facet normal -1.000000e+00 0.000000e+00 0.000000e+00
outer loop
vertex -1.030000e+02 9.046605e+01 5.000000e+00
vertex -1.030000e+02 9.008545e+01 6.913417e+00
vertex -1.030000e+02 1.030000e+02 0.000000e+00
endloop
endfacet
facet normal -1.000000e+00 0.000000e+00 0.000000e+00
outer loop
vertex -1.030000e+02 9.008545e+01 6.913417e+00
vertex -1.030000e+02 8.900159e+01 8.535534e+00
vertex -1.030000e+02 1.030000e+02 1.000000e+02
endloop
endfacet
facet normal -1.000000e+00 0.000000e+00 -0.000000e+00
outer loop
vertex -1.030000e+02 1.000000e+01 5.000000e+00
vertex -1.030000e+02 1.000000e+01 0.000000e+00
vertex -1.030000e+02 -3.000000e+00 0.000000e+00
endloop
endfacet
facet normal 0.000000e+00 1.000000e+00 0.000000e+00
outer loop
vertex -4.700000e+01 1.030000e+02 1.000000e+02
vertex -4.700000e+01 1.030000e+02 0.000000e+00
vertex -1.030000e+02 1.030000e+02 0.000000e+00
endloop
endfacet
facet normal 0.000000e+00 1.000000e+00 0.000000e+00
outer loop
vertex -1.030000e+02 1.030000e+02 0.000000e+00
vertex -1.030000e+02 1.030000e+02 1.000000e+02
vertex -4.700000e+01 1.030000e+02 1.000000e+02
endloop
endfacet
facet normal 1.000000e+00 0.000000e+00 0.000000e+00
outer loop
vertex -1.000000e+02 1.000000e+02 1.000000e+02
vertex -1.000000e+02 0.000000e+00 1.000000e+02
vertex -1.000000e+02 1.500000e+01 1.000000e+01
endloop
endfacet
facet normal 1.000000e+00 0.000000e+00 0.000000e+00
outer loop
vertex -1.000000e+02 1.500000e+01 1.000000e+01
vertex -1.000000e+02 8.546605e+01 1.000000e+01
vertex -1.000000e+02 1.000000e+02 1.000000e+02
endloop
endfacet
facet normal 1.000000e+00 0.000000e+00 0.000000e+00
outer loop
vertex -1.000000e+02 0.000000e+00 1.000000e+02
vertex -1.000000e+02 1.308658e+01 9.619398e+00
vertex -1.000000e+02 1.500000e+01 1.000000e+01
endloop
endfacet
facet normal 1.000000e+00 0.000000e+00 0.000000e+00
outer loop
vertex -1.000000e+02 1.000000e+02 0.000000e+00
vertex -1.000000e+02 9.008545e+01 6.913417e+00
vertex -1.000000e+02 9.046605e+01 5.000000e+00
endloop
endfacet
facet normal 1.000000e+00 0.000000e+00 0.000000e+00
outer loop
vertex -1.000000e+02 1.000000e+02 1.000000e+02
vertex -1.000000e+02 8.900159e+01 8.535534e+00
vertex -1.000000e+02 9.008545e+01 6.913417e+00
endloop
endfacet
facet normal 1.000000e+00 -0.000000e+00 0.000000e+00
outer loop
vertex -1.000000e+02 8.546605e+01 1.000000e+01
vertex -1.000000e+02 8.737947e+01 9.619398e+00
vertex -1.000000e+02 1.000000e+02 1.000000e+02
endloop
endfacet
facet normal 1.000000e+00 -0.000000e+00 0.000000e+00
outer loop
vertex -1.000000e+02 9.008545e+01 6.913417e+00
vertex -1.000000e+02 1.000000e+02 0.000000e+00
vertex -1.000000e+02 1.000000e+02 1.000000e+02
endloop
endfacet
facet normal 1.000000e+00 0.000000e+00 0.000000e+00
outer loop
vertex -1.000000e+02 0.000000e+00 1.000000e+02
vertex -1.000000e+02 1.146447e+01 8.535534e+00
vertex -1.000000e+02 1.308658e+01 9.619398e+00
endloop
endfacet
facet normal 1.000000e+00 0.000000e+00 0.000000e+00
outer loop
vertex -1.000000e+02 0.000000e+00 1.000000e+02
vertex -1.000000e+02 0.000000e+00 0.000000e+00
vertex -1.000000e+02 1.038060e+01 6.913417e+00
endloop
endfacet
facet normal 1.000000e+00 0.000000e+00 0.000000e+00
outer loop
vertex -1.000000e+02 0.000000e+00 0.000000e+00
vertex -1.000000e+02 1.000000e+01 0.000000e+00
vertex -1.000000e+02 1.000000e+01 5.000000e+00
endloop
endfacet
facet normal 1.000000e+00 -0.000000e+00 0.000000e+00
outer loop
vertex -1.000000e+02 8.737947e+01 9.619398e+00
vertex -1.000000e+02 8.900159e+01 8.535534e+00
vertex -1.000000e+02 1.000000e+02 1.000000e+02
endloop
endfacet
facet normal 1.000000e+00 0.000000e+00 -0.000000e+00
outer loop
vertex -1.000000e+02 1.000000e+01 5.000000e+00
vertex -1.000000e+02 1.038060e+01 6.913417e+00
vertex -1.000000e+02 0.000000e+00 0.000000e+00
endloop
endfacet
facet normal 1.000000e+00 0.000000e+00 -0.000000e+00
outer loop
vertex -1.000000e+02 1.038060e+01 6.913417e+00
vertex -1.000000e+02 1.146447e+01 8.535534e+00
vertex -1.000000e+02 0.000000e+00 1.000000e+02
endloop
endfacet
facet normal 1.000000e+00 0.000000e+00 0.000000e+00
outer loop
vertex -1.000000e+02 9.046605e+01 5.000000e+00
vertex -1.000000e+02 9.046605e+01 0.000000e+00
vertex -1.000000e+02 1.000000e+02 0.000000e+00
endloop
endfacet
facet normal 0.000000e+00 -0.000000e+00 1.000000e+00
outer loop
vertex -4.700000e+01 -3.000000e+00 1.000000e+02
vertex -4.700000e+01 1.030000e+02 1.000000e+02
vertex -5.000000e+01 1.000000e+02 1.000000e+02
endloop
endfacet
facet normal 0.000000e+00 0.000000e+00 1.000000e+00
outer loop
vertex -4.700000e+01 1.030000e+02 1.000000e+02
vertex -1.030000e+02 1.030000e+02 1.000000e+02
vertex -1.000000e+02 1.000000e+02 1.000000e+02
endloop
endfacet
facet normal 0.000000e+00 0.000000e+00 1.000000e+00
outer loop
vertex -1.000000e+02 1.000000e+02 1.000000e+02
vertex -5.000000e+01 1.000000e+02 1.000000e+02
vertex -4.700000e+01 1.030000e+02 1.000000e+02
endloop
endfacet
facet normal 0.000000e+00 0.000000e+00 1.000000e+00
outer loop
vertex -1.030000e+02 -3.000000e+00 1.000000e+02
vertex -1.000000e+02 0.000000e+00 1.000000e+02
vertex -1.000000e+02 1.000000e+02 1.000000e+02
endloop
endfacet
facet normal 0.000000e+00 0.000000e+00 1.000000e+00
outer loop
vertex -1.000000e+02 1.000000e+02 1.000000e+02
vertex -1.030000e+02 1.030000e+02 1.000000e+02
vertex -1.030000e+02 -3.000000e+00 1.000000e+02
endloop
endfacet
facet normal 0.000000e+00 0.000000e+00 1.000000e+00
outer loop
vertex -4.700000e+01 -3.000000e+00 1.000000e+02
vertex -5.000000e+01 0.000000e+00 1.000000e+02
vertex -1.000000e+02 0.000000e+00 1.000000e+02
endloop
endfacet
facet normal 0.000000e+00 0.000000e+00 1.000000e+00
outer loop
vertex -1.000000e+02 0.000000e+00 1.000000e+02
vertex -1.030000e+02 -3.000000e+00 1.000000e+02
vertex -4.700000e+01 -3.000000e+00 1.000000e+02
endloop
endfacet
facet normal 0.000000e+00 0.000000e+00 1.000000e+00
outer loop
vertex -5.000000e+01 1.000000e+02 1.000000e+02
vertex -5.000000e+01 0.000000e+00 1.000000e+02
vertex -4.700000e+01 -3.000000e+00 1.000000e+02
endloop
endfacet
facet normal 0.000000e+00 -1.000000e+00 0.000000e+00
outer loop
vertex -1.000000e+02 1.000000e+02 1.000000e+02
vertex -1.000000e+02 1.000000e+02 0.000000e+00
vertex -5.000000e+01 1.000000e+02 0.000000e+00
endloop
endfacet
facet normal 0.000000e+00 -1.000000e+00 0.000000e+00
outer loop
vertex -5.000000e+01 1.000000e+02 0.000000e+00
vertex -5.000000e+01 1.000000e+02 1.000000e+02
vertex -1.000000e+02 1.000000e+02 1.000000e+02
endloop
endfacet
facet normal 0.000000e+00 0.000000e+00 -1.000000e+00
outer loop
vertex -4.700000e+01 1.030000e+02 0.000000e+00
vertex -5.000000e+01 1.000000e+02 0.000000e+00
vertex -1.000000e+02 1.000000e+02 0.000000e+00
endloop
endfacet
facet normal 0.000000e+00 0.000000e+00 -1.000000e+00
outer loop
vertex -4.700000e+01 9.046605e+01 0.000000e+00
vertex -5.000000e+01 9.046605e+01 0.000000e+00
vertex -5.000000e+01 1.000000e+02 0.000000e+00
endloop
endfacet
facet normal 0.000000e+00 0.000000e+00 -1.000000e+00
outer loop
vertex -1.030000e+02 9.046605e+01 0.000000e+00
vertex -1.030000e+02 1.030000e+02 0.000000e+00
vertex -1.000000e+02 1.000000e+02 0.000000e+00
endloop
endfacet
facet normal 0.000000e+00 0.000000e+00 -1.000000e+00
outer loop
vertex -5.000000e+01 1.000000e+02 0.000000e+00
vertex -4.700000e+01 1.030000e+02 0.000000e+00
vertex -4.700000e+01 9.046605e+01 0.000000e+00
endloop
endfacet
facet normal 0.000000e+00 0.000000e+00 -1.000000e+00
outer loop
vertex -1.000000e+02 1.000000e+02 0.000000e+00
vertex -1.030000e+02 1.030000e+02 0.000000e+00
vertex -4.700000e+01 1.030000e+02 0.000000e+00
endloop
endfacet
facet normal 0.000000e+00 -0.000000e+00 -1.000000e+00
outer loop
vertex -1.000000e+02 1.000000e+02 0.000000e+00
vertex -1.000000e+02 9.046605e+01 0.000000e+00
vertex -1.030000e+02 9.046605e+01 0.000000e+00
endloop
endfacet
facet normal 0.000000e+00 -1.000000e+00 0.000000e+00
outer loop
vertex -5.000000e+01 9.046605e+01 0.000000e+00
vertex -4.700000e+01 9.046605e+01 0.000000e+00
vertex -4.700000e+01 9.046605e+01 5.000000e+00
endloop
endfacet
facet normal -0.000000e+00 -1.000000e+00 0.000000e+00
outer loop
vertex -4.700000e+01 9.046605e+01 5.000000e+00
vertex -5.000000e+01 9.046605e+01 5.000000e+00
vertex -5.000000e+01 9.046605e+01 0.000000e+00
endloop
endfacet
facet normal -1.000000e+00 0.000000e+00 0.000000e+00
outer loop
vertex -5.000000e+01 1.000000e+02 1.000000e+02
vertex -5.000000e+01 8.546605e+01 1.000000e+01
vertex -5.000000e+01 1.500000e+01 1.000000e+01
endloop
endfacet
facet normal -1.000000e+00 0.000000e+00 0.000000e+00
outer loop
vertex -5.000000e+01 1.500000e+01 1.000000e+01
vertex -5.000000e+01 0.000000e+00 1.000000e+02
vertex -5.000000e+01 1.000000e+02 1.000000e+02
endloop
endfacet
facet normal -1.000000e+00 0.000000e+00 0.000000e+00
outer loop
vertex -5.000000e+01 1.000000e+02 1.000000e+02
vertex -5.000000e+01 8.737947e+01 9.619398e+00
vertex -5.000000e+01 8.546605e+01 1.000000e+01
endloop
endfacet
facet normal -1.000000e+00 -0.000000e+00 0.000000e+00
outer loop
vertex -5.000000e+01 1.500000e+01 1.000000e+01
vertex -5.000000e+01 1.308658e+01 9.619398e+00
vertex -5.000000e+01 0.000000e+00 1.000000e+02
endloop
endfacet
facet normal -1.000000e+00 0.000000e+00 -0.000000e+00
outer loop
vertex -5.000000e+01 1.000000e+02 1.000000e+02
vertex -5.000000e+01 1.000000e+02 0.000000e+00
vertex -5.000000e+01 9.008545e+01 6.913417e+00
endloop
endfacet
facet normal -1.000000e+00 0.000000e+00 0.000000e+00
outer loop
vertex -5.000000e+01 1.000000e+02 0.000000e+00
vertex -5.000000e+01 9.046605e+01 0.000000e+00
vertex -5.000000e+01 9.046605e+01 5.000000e+00
endloop
endfacet
facet normal -1.000000e+00 0.000000e+00 0.000000e+00
outer loop
vertex -5.000000e+01 0.000000e+00 0.000000e+00
vertex -5.000000e+01 1.038060e+01 6.913417e+00
vertex -5.000000e+01 1.000000e+01 5.000000e+00
endloop
endfacet
facet normal -1.000000e+00 0.000000e+00 0.000000e+00
outer loop
vertex -5.000000e+01 0.000000e+00 1.000000e+02
vertex -5.000000e+01 1.146447e+01 8.535534e+00
vertex -5.000000e+01 1.038060e+01 6.913417e+00
endloop
endfacet
facet normal -1.000000e+00 0.000000e+00 0.000000e+00
outer loop
vertex -5.000000e+01 1.000000e+02 1.000000e+02
vertex -5.000000e+01 8.900159e+01 8.535534e+00
vertex -5.000000e+01 8.737947e+01 9.619398e+00
endloop
endfacet
facet normal -1.000000e+00 0.000000e+00 0.000000e+00
outer loop
vertex -5.000000e+01 9.046605e+01 5.000000e+00
vertex -5.000000e+01 9.008545e+01 6.913417e+00
vertex -5.000000e+01 1.000000e+02 0.000000e+00
endloop
endfacet
facet normal -1.000000e+00 -0.000000e+00 0.000000e+00
outer loop
vertex -5.000000e+01 1.038060e+01 6.913417e+00
vertex -5.000000e+01 0.000000e+00 0.000000e+00
vertex -5.000000e+01 0.000000e+00 1.000000e+02
endloop
endfacet
facet normal -1.000000e+00 0.000000e+00 0.000000e+00
outer loop
vertex -5.000000e+01 9.008545e+01 6.913417e+00
vertex -5.000000e+01 8.900159e+01 8.535534e+00
vertex -5.000000e+01 1.000000e+02 1.000000e+02
endloop
endfacet
facet normal -1.000000e+00 -0.000000e+00 0.000000e+00
outer loop
vertex -5.000000e+01 1.308658e+01 9.619398e+00
vertex -5.000000e+01 1.146447e+01 8.535534e+00
vertex -5.000000e+01 0.000000e+00 1.000000e+02
endloop
endfacet
facet normal -1.000000e+00 0.000000e+00 -0.000000e+00
outer loop
vertex -5.000000e+01 1.000000e+01 5.000000e+00
vertex -5.000000e+01 1.000000e+01 0.000000e+00
vertex -5.000000e+01 0.000000e+00 0.000000e+00
endloop
endfacet
facet normal 1.000000e+00 0.000000e+00 0.000000e+00
outer loop
vertex -4.700000e+01 1.030000e+02 1.000000e+02
vertex -4.700000e+01 -3.000000e+00 1.000000e+02
vertex -4.700000e+01 1.500000e+01 1.000000e+01
endloop
endfacet
facet normal 1.000000e+00 0.000000e+00 0.000000e+00
outer loop
vertex -4.700000e+01 1.500000e+01 1.000000e+01
vertex -4.700000e+01 8.546605e+01 1.000000e+01
vertex -4.700000e+01 1.030000e+02 1.000000e+02
endloop
endfacet
facet normal 1.000000e+00 0.000000e+00 0.000000e+00
outer loop
vertex -4.700000e+01 -3.000000e+00 1.000000e+02
vertex -4.700000e+01 1.308658e+01 9.619398e+00
vertex -4.700000e+01 1.500000e+01 1.000000e+01
endloop
endfacet
facet normal 1.000000e+00 0.000000e+00 0.000000e+00
outer loop
vertex -4.700000e+01 1.030000e+02 0.000000e+00
vertex -4.700000e+01 9.008545e+01 6.913417e+00
vertex -4.700000e+01 9.046605e+01 5.000000e+00
endloop
endfacet
facet normal 1.000000e+00 0.000000e+00 0.000000e+00
outer loop
vertex -4.700000e+01 1.030000e+02 1.000000e+02
vertex -4.700000e+01 8.900159e+01 8.535534e+00
vertex -4.700000e+01 9.008545e+01 6.913417e+00
endloop
endfacet
facet normal 1.000000e+00 -0.000000e+00 0.000000e+00
outer loop
vertex -4.700000e+01 8.546605e+01 1.000000e+01
vertex -4.700000e+01 8.737947e+01 9.619398e+00
vertex -4.700000e+01 1.030000e+02 1.000000e+02
endloop
endfacet
facet normal 1.000000e+00 -0.000000e+00 0.000000e+00
outer loop
vertex -4.700000e+01 9.008545e+01 6.913417e+00
vertex -4.700000e+01 1.030000e+02 0.000000e+00
vertex -4.700000e+01 1.030000e+02 1.000000e+02
endloop
endfacet
facet normal 1.000000e+00 0.000000e+00 0.000000e+00
outer loop
vertex -4.700000e+01 -3.000000e+00 1.000000e+02
vertex -4.700000e+01 1.146447e+01 8.535534e+00
vertex -4.700000e+01 1.308658e+01 9.619398e+00
endloop
endfacet
facet normal 1.000000e+00 0.000000e+00 0.000000e+00
outer loop
vertex -4.700000e+01 -3.000000e+00 1.000000e+02
vertex -4.700000e+01 -3.000000e+00 0.000000e+00
vertex -4.700000e+01 1.038060e+01 6.913417e+00
endloop
endfacet
facet normal 1.000000e+00 0.000000e+00 0.000000e+00
outer loop
vertex -4.700000e+01 -3.000000e+00 0.000000e+00
vertex -4.700000e+01 1.000000e+01 0.000000e+00
vertex -4.700000e+01 1.000000e+01 5.000000e+00
endloop
endfacet
facet normal 1.000000e+00 -0.000000e+00 0.000000e+00
outer loop
vertex -4.700000e+01 8.737947e+01 9.619398e+00
vertex -4.700000e+01 8.900159e+01 8.535534e+00
vertex -4.700000e+01 1.030000e+02 1.000000e+02
endloop
endfacet
facet normal 1.000000e+00 0.000000e+00 -0.000000e+00
outer loop
vertex -4.700000e+01 1.000000e+01 5.000000e+00
vertex -4.700000e+01 1.038060e+01 6.913417e+00
vertex -4.700000e+01 -3.000000e+00 0.000000e+00
endloop
endfacet
facet normal 1.000000e+00 0.000000e+00 -0.000000e+00
outer loop
vertex -4.700000e+01 1.038060e+01 6.913417e+00
vertex -4.700000e+01 1.146447e+01 8.535534e+00
vertex -4.700000e+01 -3.000000e+00 1.000000e+02
endloop
endfacet
facet normal 1.000000e+00 0.000000e+00 0.000000e+00
outer loop
vertex -4.700000e+01 9.046605e+01 5.000000e+00
vertex -4.700000e+01 9.046605e+01 0.000000e+00
vertex -4.700000e+01 1.030000e+02 0.000000e+00
endloop
endfacet
facet normal 0.000000e+00 0.000000e+00 -1.000000e+00
outer loop
vertex -4.700000e+01 1.500000e+01 1.000000e+01
vertex -5.000000e+01 1.500000e+01 1.000000e+01
vertex -5.000000e+01 8.546605e+01 1.000000e+01
endloop
endfacet
facet normal 0.000000e+00 0.000000e+00 -1.000000e+00
outer loop
vertex -5.000000e+01 8.546605e+01 1.000000e+01
vertex -4.700000e+01 8.546605e+01 1.000000e+01
vertex -4.700000e+01 1.500000e+01 1.000000e+01
endloop
endfacet
facet normal 0.000000e+00 9.807853e-01 -1.950906e-01
outer loop
vertex -4.700000e+01 1.038060e+01 6.913417e+00
vertex -4.700000e+01 1.000000e+01 5.000000e+00
vertex -5.000000e+01 1.000000e+01 5.000000e+00
endloop
endfacet
facet normal 0.000000e+00 8.314698e-01 -5.555700e-01
outer loop
vertex -4.700000e+01 1.146447e+01 8.535534e+00
vertex -4.700000e+01 1.038060e+01 6.913417e+00
vertex -5.000000e+01 1.038060e+01 6.913417e+00
endloop
endfacet
facet normal 0.000000e+00 5.555705e-01 -8.314694e-01
outer loop
vertex -4.700000e+01 1.308658e+01 9.619398e+00
vertex -4.700000e+01 1.146447e+01 8.535534e+00
vertex -5.000000e+01 1.146447e+01 8.535534e+00
endloop
endfacet
facet normal 0.000000e+00 1.950900e-01 -9.807853e-01
outer loop
vertex -4.700000e+01 1.500000e+01 1.000000e+01
vertex -4.700000e+01 1.308658e+01 9.619398e+00
vertex -5.000000e+01 1.308658e+01 9.619398e+00
endloop
endfacet
facet normal 0.000000e+00 1.950900e-01 -9.807853e-01
outer loop
vertex -5.000000e+01 1.308658e+01 9.619398e+00
vertex -5.000000e+01 1.500000e+01 1.000000e+01
vertex -4.700000e+01 1.500000e+01 1.000000e+01
endloop
endfacet
facet normal 0.000000e+00 5.555705e-01 -8.314694e-01
outer loop
vertex -5.000000e+01 1.146447e+01 8.535534e+00
vertex -5.000000e+01 1.308658e+01 9.619398e+00
vertex -4.700000e+01 1.308658e+01 9.619398e+00
endloop
endfacet
facet normal 0.000000e+00 8.314698e-01 -5.555700e-01
outer loop
vertex -5.000000e+01 1.038060e+01 6.913417e+00
vertex -5.000000e+01 1.146447e+01 8.535534e+00
vertex -4.700000e+01 1.146447e+01 8.535534e+00
endloop
endfacet
facet normal 0.000000e+00 9.807853e-01 -1.950906e-01
outer loop
vertex -5.000000e+01 1.000000e+01 5.000000e+00
vertex -5.000000e+01 1.038060e+01 6.913417e+00
vertex -4.700000e+01 1.038060e+01 6.913417e+00
endloop
endfacet
facet normal 0.000000e+00 -1.950897e-01 -9.807854e-01
outer loop
vertex -4.700000e+01 8.737947e+01 9.619398e+00
vertex -4.700000e+01 8.546605e+01 1.000000e+01
vertex -5.000000e+01 8.546605e+01 1.000000e+01
endloop
endfacet
facet normal 0.000000e+00 -5.555705e-01 -8.314694e-01
outer loop
vertex -4.700000e+01 8.900159e+01 8.535534e+00
vertex -4.700000e+01 8.737947e+01 9.619398e+00
vertex -5.000000e+01 8.737947e+01 9.619398e+00
endloop
endfacet
facet normal 0.000000e+00 -8.314700e-01 -5.555696e-01
outer loop
vertex -4.700000e+01 9.008545e+01 6.913417e+00
vertex -4.700000e+01 8.900159e+01 8.535534e+00
vertex -5.000000e+01 8.900159e+01 8.535534e+00
endloop
endfacet
facet normal 0.000000e+00 -9.807855e-01 -1.950892e-01
outer loop
vertex -4.700000e+01 9.046605e+01 5.000000e+00
vertex -4.700000e+01 9.008545e+01 6.913417e+00
vertex -5.000000e+01 9.008545e+01 6.913417e+00
endloop
endfacet
facet normal 0.000000e+00 -9.807855e-01 -1.950892e-01
outer loop
vertex -5.000000e+01 9.008545e+01 6.913417e+00
vertex -5.000000e+01 9.046605e+01 5.000000e+00
vertex -4.700000e+01 9.046605e+01 5.000000e+00
endloop
endfacet
facet normal 0.000000e+00 -8.314700e-01 -5.555696e-01
outer loop
vertex -5.000000e+01 8.900159e+01 8.535534e+00
vertex -5.000000e+01 9.008545e+01 6.913417e+00
vertex -4.700000e+01 9.008545e+01 6.913417e+00
endloop
endfacet
facet normal 0.000000e+00 -5.555705e-01 -8.314694e-01
outer loop
vertex -5.000000e+01 8.737947e+01 9.619398e+00
vertex -5.000000e+01 8.900159e+01 8.535534e+00
vertex -4.700000e+01 8.900159e+01 8.535534e+00
endloop
endfacet
facet normal 0.000000e+00 -1.950897e-01 -9.807854e-01
outer loop
vertex -5.000000e+01 8.546605e+01 1.000000e+01
vertex -5.000000e+01 8.737947e+01 9.619398e+00
vertex -4.700000e+01 8.737947e+01 9.619398e+00
endloop
endfacet
endsolid SHAPR3D_SOLID
