solid SHAPR3D_SOLID
facet normal 1.000000e+00 0.000000e+00 0.000000e+00
outer loop
vertex 1.000000e+02 -3.038614e+01 3.000000e+00
vertex 1.000000e+02 -3.038614e+01 0.000000e+00
vertex 1.000000e+02 2.361386e+01 0.000000e+00
endloop
endfacet
facet normal 1.000000e+00 0.000000e+00 -0.000000e+00
outer loop
vertex 1.000000e+02 2.361386e+01 0.000000e+00
vertex 1.000000e+02 2.361386e+01 3.000000e+00
vertex 1.000000e+02 -3.038614e+01 3.000000e+00
endloop
endfacet
facet normal 0.000000e+00 1.000000e+00 0.000000e+00
outer loop
vertex 1.000000e+02 2.361386e+01 3.000000e+00
vertex 1.000000e+02 2.361386e+01 0.000000e+00
vertex 3.469447e-15 2.361386e+01 0.000000e+00
endloop
endfacet
facet normal 0.000000e+00 1.000000e+00 0.000000e+00
outer loop
vertex 3.469447e-15 2.361386e+01 0.000000e+00
vertex 3.469447e-15 2.361386e+01 3.000000e+00
vertex 1.000000e+02 2.361386e+01 3.000000e+00
endloop
endfacet
facet normal -1.000000e+00 -9.637353e-17 -0.000000e+00
outer loop
vertex 3.469447e-15 2.361386e+01 3.000000e+00
vertex 3.469447e-15 2.361386e+01 0.000000e+00
vertex 8.673617e-15 -3.038614e+01 0.000000e+00
endloop
endfacet
facet normal -1.000000e+00 -9.637353e-17 0.000000e+00
outer loop
vertex 8.673617e-15 -3.038614e+01 0.000000e+00
vertex 8.673617e-15 -3.038614e+01 3.000000e+00
vertex 3.469447e-15 2.361386e+01 3.000000e+00
endloop
endfacet
facet normal 0.000000e+00 -1.000000e+00 0.000000e+00
outer loop
vertex 8.673617e-15 -3.038614e+01 3.000000e+00
vertex 8.673617e-15 -3.038614e+01 0.000000e+00
vertex 1.000000e+02 -3.038614e+01 0.000000e+00
endloop
endfacet
facet normal 0.000000e+00 -1.000000e+00 0.000000e+00
outer loop
vertex 1.000000e+02 -3.038614e+01 0.000000e+00
vertex 1.000000e+02 -3.038614e+01 3.000000e+00
vertex 8.673617e-15 -3.038614e+01 3.000000e+00
endloop
endfacet
facet normal 0.000000e+00 0.000000e+00 1.000000e+00
outer loop
vertex 1.000000e+02 2.361386e+01 3.000000e+00
vertex 3.469447e-15 2.361386e+01 3.000000e+00
vertex 8.673617e-15 -3.038614e+01 3.000000e+00
endloop
endfacet
facet normal 0.000000e+00 0.000000e+00 1.000000e+00
outer loop
vertex 8.673617e-15 -3.038614e+01 3.000000e+00
vertex 1.000000e+02 -3.038614e+01 3.000000e+00
vertex 1.000000e+02 2.361386e+01 3.000000e+00
endloop
endfacet
facet normal 0.000000e+00 -0.000000e+00 -1.000000e+00
outer loop
vertex 1.000000e+02 2.361386e+01 0.000000e+00
vertex 1.000000e+02 -3.038614e+01 0.000000e+00
vertex 8.673617e-15 -3.038614e+01 0.000000e+00
endloop
endfacet
facet normal 0.000000e+00 0.000000e+00 -1.000000e+00
outer loop
vertex 8.673617e-15 -3.038614e+01 0.000000e+00
vertex 3.469447e-15 2.361386e+01 0.000000e+00
vertex 1.000000e+02 2.361386e+01 0.000000e+00
endloop
endfacet
facet normal 1.000000e+00 9.637353e-17 0.000000e+00
outer loop
vertex 8.673617e-15 -3.038614e+01 3.500000e+01
vertex 8.673617e-15 -3.038614e+01 0.000000e+00
vertex 3.469447e-15 2.361386e+01 0.000000e+00
endloop
endfacet
facet normal 1.000000e+00 9.637353e-17 -0.000000e+00
outer loop
vertex 3.469447e-15 2.361386e+01 0.000000e+00
vertex 3.469447e-15 2.361386e+01 3.500000e+01
vertex 8.673617e-15 -3.038614e+01 3.500000e+01
endloop
endfacet
facet normal 0.000000e+00 -1.000000e+00 0.000000e+00
outer loop
vertex 3.469447e-15 2.361386e+01 3.500000e+01
vertex 3.469447e-15 2.361386e+01 0.000000e+00
vertex 1.000000e+02 2.361386e+01 0.000000e+00
endloop
endfacet
facet normal 0.000000e+00 -1.000000e+00 0.000000e+00
outer loop
vertex 1.000000e+02 2.361386e+01 0.000000e+00
vertex 1.000000e+02 2.361386e+01 3.500000e+01
vertex 3.469447e-15 2.361386e+01 3.500000e+01
endloop
endfacet
facet normal -1.000000e+00 0.000000e+00 -0.000000e+00
outer loop
vertex 1.000000e+02 2.361386e+01 3.500000e+01
vertex 1.000000e+02 2.361386e+01 0.000000e+00
vertex 1.000000e+02 -3.038614e+01 0.000000e+00
endloop
endfacet
facet normal -1.000000e+00 0.000000e+00 0.000000e+00
outer loop
vertex 1.000000e+02 -3.038614e+01 0.000000e+00
vertex 1.000000e+02 -3.038614e+01 3.500000e+01
vertex 1.000000e+02 2.361386e+01 3.500000e+01
endloop
endfacet
facet normal 0.000000e+00 1.000000e+00 0.000000e+00
outer loop
vertex 1.000000e+02 -3.038614e+01 3.500000e+01
vertex 1.000000e+02 -3.038614e+01 0.000000e+00
vertex 8.673617e-15 -3.038614e+01 0.000000e+00
endloop
endfacet
facet normal 0.000000e+00 1.000000e+00 0.000000e+00
outer loop
vertex 8.673617e-15 -3.038614e+01 0.000000e+00
vertex 8.673617e-15 -3.038614e+01 3.500000e+01
vertex 1.000000e+02 -3.038614e+01 3.500000e+01
endloop
endfacet
facet normal 0.000000e+00 0.000000e+00 1.000000e+00
outer loop
vertex 8.673617e-15 -3.038614e+01 3.500000e+01
vertex -2.000000e+00 -2.938614e+01 3.500000e+01
vertex -1.771639e+00 -3.053419e+01 3.500000e+01
endloop
endfacet
facet normal 0.000000e+00 0.000000e+00 1.000000e+00
outer loop
vertex 3.469447e-15 2.361386e+01 3.500000e+01
vertex -2.000000e+00 2.261386e+01 3.500000e+01
vertex -2.000000e+00 -2.938614e+01 3.500000e+01
endloop
endfacet
facet normal 0.000000e+00 0.000000e+00 1.000000e+00
outer loop
vertex 1.000000e+02 -3.038614e+01 3.500000e+01
vertex 9.900000e+01 -3.238614e+01 3.500000e+01
vertex 1.001480e+02 -3.215778e+01 3.500000e+01
endloop
endfacet
facet normal 0.000000e+00 0.000000e+00 1.000000e+00
outer loop
vertex 8.673617e-15 -3.038614e+01 3.500000e+01
vertex 1.000000e+00 -3.238614e+01 3.500000e+01
vertex 9.900000e+01 -3.238614e+01 3.500000e+01
endloop
endfacet
facet normal -0.000000e+00 0.000000e+00 1.000000e+00
outer loop
vertex -2.000000e+00 -2.938614e+01 3.500000e+01
vertex 8.673617e-15 -3.038614e+01 3.500000e+01
vertex 3.469447e-15 2.361386e+01 3.500000e+01
endloop
endfacet
facet normal 0.000000e+00 0.000000e+00 1.000000e+00
outer loop
vertex 3.469447e-15 2.361386e+01 3.500000e+01
vertex -1.121320e+00 2.473518e+01 3.500000e+01
vertex -1.771639e+00 2.376191e+01 3.500000e+01
endloop
endfacet
facet normal 0.000000e+00 -0.000000e+00 1.000000e+00
outer loop
vertex 9.900000e+01 -3.238614e+01 3.500000e+01
vertex 1.000000e+02 -3.038614e+01 3.500000e+01
vertex 8.673617e-15 -3.038614e+01 3.500000e+01
endloop
endfacet
facet normal 0.000000e+00 0.000000e+00 1.000000e+00
outer loop
vertex 8.673617e-15 -3.038614e+01 3.500000e+01
vertex -1.121320e+00 -3.150746e+01 3.500000e+01
vertex -1.480503e-01 -3.215778e+01 3.500000e+01
endloop
endfacet
facet normal 0.000000e+00 0.000000e+00 1.000000e+00
outer loop
vertex 1.000000e+02 2.361386e+01 3.500000e+01
vertex 1.000000e+02 -3.038614e+01 3.500000e+01
vertex 1.020000e+02 -2.938614e+01 3.500000e+01
endloop
endfacet
facet normal 0.000000e+00 0.000000e+00 1.000000e+00
outer loop
vertex 1.000000e+02 -3.038614e+01 3.500000e+01
vertex 1.011213e+02 -3.150746e+01 3.500000e+01
vertex 1.017716e+02 -3.053419e+01 3.500000e+01
endloop
endfacet
facet normal 0.000000e+00 -0.000000e+00 1.000000e+00
outer loop
vertex 3.469447e-15 2.361386e+01 3.500000e+01
vertex 1.000000e+00 2.561386e+01 3.500000e+01
vertex -1.480503e-01 2.538550e+01 3.500000e+01
endloop
endfacet
facet normal 0.000000e+00 0.000000e+00 1.000000e+00
outer loop
vertex 3.469447e-15 2.361386e+01 3.500000e+01
vertex 1.000000e+02 2.361386e+01 3.500000e+01
vertex 9.900000e+01 2.561386e+01 3.500000e+01
endloop
endfacet
facet normal 0.000000e+00 0.000000e+00 1.000000e+00
outer loop
vertex -1.771639e+00 2.376191e+01 3.500000e+01
vertex -2.000000e+00 2.261386e+01 3.500000e+01
vertex 3.469447e-15 2.361386e+01 3.500000e+01
endloop
endfacet
facet normal -0.000000e+00 0.000000e+00 1.000000e+00
outer loop
vertex -1.480503e-01 -3.215778e+01 3.500000e+01
vertex 1.000000e+00 -3.238614e+01 3.500000e+01
vertex 8.673617e-15 -3.038614e+01 3.500000e+01
endloop
endfacet
facet normal -0.000000e+00 0.000000e+00 1.000000e+00
outer loop
vertex 1.000000e+02 2.361386e+01 3.500000e+01
vertex 1.020000e+02 2.261386e+01 3.500000e+01
vertex 1.017716e+02 2.376191e+01 3.500000e+01
endloop
endfacet
facet normal 0.000000e+00 -0.000000e+00 1.000000e+00
outer loop
vertex 1.017716e+02 -3.053419e+01 3.500000e+01
vertex 1.020000e+02 -2.938614e+01 3.500000e+01
vertex 1.000000e+02 -3.038614e+01 3.500000e+01
endloop
endfacet
facet normal 0.000000e+00 0.000000e+00 1.000000e+00
outer loop
vertex 9.900000e+01 2.561386e+01 3.500000e+01
vertex 1.000000e+00 2.561386e+01 3.500000e+01
vertex 3.469447e-15 2.361386e+01 3.500000e+01
endloop
endfacet
facet normal 0.000000e+00 0.000000e+00 1.000000e+00
outer loop
vertex 1.000000e+02 2.361386e+01 3.500000e+01
vertex 1.011213e+02 2.473518e+01 3.500000e+01
vertex 1.001480e+02 2.538550e+01 3.500000e+01
endloop
endfacet
facet normal 0.000000e+00 -0.000000e+00 1.000000e+00
outer loop
vertex 1.001480e+02 -3.215778e+01 3.500000e+01
vertex 1.011213e+02 -3.150746e+01 3.500000e+01
vertex 1.000000e+02 -3.038614e+01 3.500000e+01
endloop
endfacet
facet normal 0.000000e+00 -0.000000e+00 1.000000e+00
outer loop
vertex 1.020000e+02 -2.938614e+01 3.500000e+01
vertex 1.020000e+02 2.261386e+01 3.500000e+01
vertex 1.000000e+02 2.361386e+01 3.500000e+01
endloop
endfacet
facet normal 0.000000e+00 0.000000e+00 1.000000e+00
outer loop
vertex 1.001480e+02 2.538550e+01 3.500000e+01
vertex 9.900000e+01 2.561386e+01 3.500000e+01
vertex 1.000000e+02 2.361386e+01 3.500000e+01
endloop
endfacet
facet normal 0.000000e+00 0.000000e+00 1.000000e+00
outer loop
vertex 1.017716e+02 2.376191e+01 3.500000e+01
vertex 1.011213e+02 2.473518e+01 3.500000e+01
vertex 1.000000e+02 2.361386e+01 3.500000e+01
endloop
endfacet
facet normal -0.000000e+00 0.000000e+00 1.000000e+00
outer loop
vertex -1.771639e+00 -3.053419e+01 3.500000e+01
vertex -1.121320e+00 -3.150746e+01 3.500000e+01
vertex 8.673617e-15 -3.038614e+01 3.500000e+01
endloop
endfacet
facet normal 0.000000e+00 0.000000e+00 1.000000e+00
outer loop
vertex -1.480503e-01 2.538550e+01 3.500000e+01
vertex -1.121320e+00 2.473518e+01 3.500000e+01
vertex 3.469447e-15 2.361386e+01 3.500000e+01
endloop
endfacet
facet normal 0.000000e+00 -0.000000e+00 -1.000000e+00
outer loop
vertex 3.469447e-15 2.361386e+01 0.000000e+00
vertex 8.673617e-15 -3.038614e+01 0.000000e+00
vertex -2.000000e+00 -2.938614e+01 0.000000e+00
endloop
endfacet
facet normal 0.000000e+00 0.000000e+00 -1.000000e+00
outer loop
vertex 8.673617e-15 -3.038614e+01 0.000000e+00
vertex -1.121320e+00 -3.150746e+01 0.000000e+00
vertex -1.771639e+00 -3.053419e+01 0.000000e+00
endloop
endfacet
facet normal 0.000000e+00 0.000000e+00 -1.000000e+00
outer loop
vertex 3.469447e-15 2.361386e+01 0.000000e+00
vertex 1.000000e+00 2.561386e+01 0.000000e+00
vertex 9.900000e+01 2.561386e+01 0.000000e+00
endloop
endfacet
facet normal 0.000000e+00 0.000000e+00 -1.000000e+00
outer loop
vertex 3.469447e-15 2.361386e+01 0.000000e+00
vertex -1.121320e+00 2.473518e+01 0.000000e+00
vertex -1.480503e-01 2.538550e+01 0.000000e+00
endloop
endfacet
facet normal -0.000000e+00 0.000000e+00 -1.000000e+00
outer loop
vertex 3.469447e-15 2.361386e+01 0.000000e+00
vertex -2.000000e+00 2.261386e+01 0.000000e+00
vertex -1.771639e+00 2.376191e+01 0.000000e+00
endloop
endfacet
facet normal 0.000000e+00 0.000000e+00 -1.000000e+00
outer loop
vertex -1.771639e+00 -3.053419e+01 0.000000e+00
vertex -2.000000e+00 -2.938614e+01 0.000000e+00
vertex 8.673617e-15 -3.038614e+01 0.000000e+00
endloop
endfacet
facet normal 0.000000e+00 0.000000e+00 -1.000000e+00
outer loop
vertex 1.000000e+02 2.361386e+01 0.000000e+00
vertex 9.900000e+01 2.561386e+01 0.000000e+00
vertex 1.001480e+02 2.538550e+01 0.000000e+00
endloop
endfacet
facet normal 0.000000e+00 0.000000e+00 -1.000000e+00
outer loop
vertex -1.480503e-01 2.538550e+01 0.000000e+00
vertex 1.000000e+00 2.561386e+01 0.000000e+00
vertex 3.469447e-15 2.361386e+01 0.000000e+00
endloop
endfacet
facet normal 0.000000e+00 0.000000e+00 -1.000000e+00
outer loop
vertex 1.000000e+02 -3.038614e+01 0.000000e+00
vertex 1.020000e+02 -2.938614e+01 0.000000e+00
vertex 1.017716e+02 -3.053419e+01 0.000000e+00
endloop
endfacet
facet normal 0.000000e+00 0.000000e+00 -1.000000e+00
outer loop
vertex 1.000000e+02 2.361386e+01 0.000000e+00
vertex 1.020000e+02 2.261386e+01 0.000000e+00
vertex 1.020000e+02 -2.938614e+01 0.000000e+00
endloop
endfacet
facet normal 0.000000e+00 0.000000e+00 -1.000000e+00
outer loop
vertex -2.000000e+00 -2.938614e+01 0.000000e+00
vertex -2.000000e+00 2.261386e+01 0.000000e+00
vertex 3.469447e-15 2.361386e+01 0.000000e+00
endloop
endfacet
facet normal 0.000000e+00 -0.000000e+00 -1.000000e+00
outer loop
vertex 9.900000e+01 2.561386e+01 0.000000e+00
vertex 1.000000e+02 2.361386e+01 0.000000e+00
vertex 3.469447e-15 2.361386e+01 0.000000e+00
endloop
endfacet
facet normal -0.000000e+00 0.000000e+00 -1.000000e+00
outer loop
vertex 1.020000e+02 -2.938614e+01 0.000000e+00
vertex 1.000000e+02 -3.038614e+01 0.000000e+00
vertex 1.000000e+02 2.361386e+01 0.000000e+00
endloop
endfacet
facet normal 0.000000e+00 0.000000e+00 -1.000000e+00
outer loop
vertex 1.000000e+02 2.361386e+01 0.000000e+00
vertex 1.011213e+02 2.473518e+01 0.000000e+00
vertex 1.017716e+02 2.376191e+01 0.000000e+00
endloop
endfacet
facet normal 0.000000e+00 0.000000e+00 -1.000000e+00
outer loop
vertex 8.673617e-15 -3.038614e+01 0.000000e+00
vertex 1.000000e+02 -3.038614e+01 0.000000e+00
vertex 9.900000e+01 -3.238614e+01 0.000000e+00
endloop
endfacet
facet normal 0.000000e+00 0.000000e+00 -1.000000e+00
outer loop
vertex 1.000000e+02 -3.038614e+01 0.000000e+00
vertex 1.011213e+02 -3.150746e+01 0.000000e+00
vertex 1.001480e+02 -3.215778e+01 0.000000e+00
endloop
endfacet
facet normal 0.000000e+00 -0.000000e+00 -1.000000e+00
outer loop
vertex 1.001480e+02 2.538550e+01 0.000000e+00
vertex 1.011213e+02 2.473518e+01 0.000000e+00
vertex 1.000000e+02 2.361386e+01 0.000000e+00
endloop
endfacet
facet normal 0.000000e+00 -0.000000e+00 -1.000000e+00
outer loop
vertex 1.017716e+02 2.376191e+01 0.000000e+00
vertex 1.020000e+02 2.261386e+01 0.000000e+00
vertex 1.000000e+02 2.361386e+01 0.000000e+00
endloop
endfacet
facet normal 0.000000e+00 -0.000000e+00 -1.000000e+00
outer loop
vertex 8.673617e-15 -3.038614e+01 0.000000e+00
vertex 1.000000e+00 -3.238614e+01 0.000000e+00
vertex -1.480503e-01 -3.215778e+01 0.000000e+00
endloop
endfacet
facet normal -0.000000e+00 0.000000e+00 -1.000000e+00
outer loop
vertex 1.001480e+02 -3.215778e+01 0.000000e+00
vertex 9.900000e+01 -3.238614e+01 0.000000e+00
vertex 1.000000e+02 -3.038614e+01 0.000000e+00
endloop
endfacet
facet normal -0.000000e+00 0.000000e+00 -1.000000e+00
outer loop
vertex 1.017716e+02 -3.053419e+01 0.000000e+00
vertex 1.011213e+02 -3.150746e+01 0.000000e+00
vertex 1.000000e+02 -3.038614e+01 0.000000e+00
endloop
endfacet
facet normal 0.000000e+00 0.000000e+00 -1.000000e+00
outer loop
vertex 9.900000e+01 -3.238614e+01 0.000000e+00
vertex 1.000000e+00 -3.238614e+01 0.000000e+00
vertex 8.673617e-15 -3.038614e+01 0.000000e+00
endloop
endfacet
facet normal 0.000000e+00 0.000000e+00 -1.000000e+00
outer loop
vertex -1.480503e-01 -3.215778e+01 0.000000e+00
vertex -1.121320e+00 -3.150746e+01 0.000000e+00
vertex 8.673617e-15 -3.038614e+01 0.000000e+00
endloop
endfacet
facet normal 0.000000e+00 0.000000e+00 -1.000000e+00
outer loop
vertex -1.771639e+00 2.376191e+01 0.000000e+00
vertex -1.121320e+00 2.473518e+01 0.000000e+00
vertex 3.469447e-15 2.361386e+01 0.000000e+00
endloop
endfacet
facet normal -1.000000e+00 0.000000e+00 -0.000000e+00
outer loop
vertex -2.000000e+00 2.261386e+01 3.500000e+01
vertex -2.000000e+00 2.261386e+01 0.000000e+00
vertex -2.000000e+00 -2.938614e+01 0.000000e+00
endloop
endfacet
facet normal -1.000000e+00 0.000000e+00 0.000000e+00
outer loop
vertex -2.000000e+00 -2.938614e+01 0.000000e+00
vertex -2.000000e+00 -2.938614e+01 3.500000e+01
vertex -2.000000e+00 2.261386e+01 3.500000e+01
endloop
endfacet
facet normal 0.000000e+00 -1.000000e+00 0.000000e+00
outer loop
vertex 1.000000e+00 -3.238614e+01 3.500000e+01
vertex 1.000000e+00 -3.238614e+01 0.000000e+00
vertex 9.900000e+01 -3.238614e+01 0.000000e+00
endloop
endfacet
facet normal 0.000000e+00 -1.000000e+00 0.000000e+00
outer loop
vertex 9.900000e+01 -3.238614e+01 0.000000e+00
vertex 9.900000e+01 -3.238614e+01 3.500000e+01
vertex 1.000000e+00 -3.238614e+01 3.500000e+01
endloop
endfacet
facet normal 1.000000e+00 0.000000e+00 0.000000e+00
outer loop
vertex 1.020000e+02 -2.938614e+01 3.500000e+01
vertex 1.020000e+02 -2.938614e+01 0.000000e+00
vertex 1.020000e+02 2.261386e+01 0.000000e+00
endloop
endfacet
facet normal 1.000000e+00 0.000000e+00 -0.000000e+00
outer loop
vertex 1.020000e+02 2.261386e+01 0.000000e+00
vertex 1.020000e+02 2.261386e+01 3.500000e+01
vertex 1.020000e+02 -2.938614e+01 3.500000e+01
endloop
endfacet
facet normal 0.000000e+00 1.000000e+00 0.000000e+00
outer loop
vertex 1.000000e+00 2.561386e+01 0.000000e+00
vertex 1.000000e+00 2.561386e+01 3.500000e+01
vertex 9.900000e+01 2.561386e+01 3.500000e+01
endloop
endfacet
facet normal 0.000000e+00 1.000000e+00 0.000000e+00
outer loop
vertex 9.900000e+01 2.561386e+01 3.500000e+01
vertex 9.900000e+01 2.561386e+01 0.000000e+00
vertex 1.000000e+00 2.561386e+01 0.000000e+00
endloop
endfacet
facet normal -9.807853e-01 1.950903e-01 0.000000e+00
outer loop
vertex -2.000000e+00 2.261386e+01 0.000000e+00
vertex -2.000000e+00 2.261386e+01 3.500000e+01
vertex -1.771639e+00 2.376191e+01 3.500000e+01
endloop
endfacet
facet normal -8.314692e-01 5.555709e-01 0.000000e+00
outer loop
vertex -1.771639e+00 2.376191e+01 0.000000e+00
vertex -1.771639e+00 2.376191e+01 3.500000e+01
vertex -1.121320e+00 2.473518e+01 3.500000e+01
endloop
endfacet
facet normal -5.555713e-01 8.314689e-01 0.000000e+00
outer loop
vertex -1.121320e+00 2.473518e+01 0.000000e+00
vertex -1.121320e+00 2.473518e+01 3.500000e+01
vertex -1.480503e-01 2.538550e+01 3.500000e+01
endloop
endfacet
facet normal -1.950901e-01 9.807853e-01 0.000000e+00
outer loop
vertex -1.480503e-01 2.538550e+01 0.000000e+00
vertex -1.480503e-01 2.538550e+01 3.500000e+01
vertex 1.000000e+00 2.561386e+01 3.500000e+01
endloop
endfacet
facet normal -1.950901e-01 9.807853e-01 0.000000e+00
outer loop
vertex 1.000000e+00 2.561386e+01 3.500000e+01
vertex 1.000000e+00 2.561386e+01 0.000000e+00
vertex -1.480503e-01 2.538550e+01 0.000000e+00
endloop
endfacet
facet normal -5.555713e-01 8.314689e-01 0.000000e+00
outer loop
vertex -1.480503e-01 2.538550e+01 3.500000e+01
vertex -1.480503e-01 2.538550e+01 0.000000e+00
vertex -1.121320e+00 2.473518e+01 0.000000e+00
endloop
endfacet
facet normal -8.314692e-01 5.555709e-01 0.000000e+00
outer loop
vertex -1.121320e+00 2.473518e+01 3.500000e+01
vertex -1.121320e+00 2.473518e+01 0.000000e+00
vertex -1.771639e+00 2.376191e+01 0.000000e+00
endloop
endfacet
facet normal -9.807853e-01 1.950903e-01 0.000000e+00
outer loop
vertex -1.771639e+00 2.376191e+01 3.500000e+01
vertex -1.771639e+00 2.376191e+01 0.000000e+00
vertex -2.000000e+00 2.261386e+01 0.000000e+00
endloop
endfacet
facet normal -1.950885e-01 -9.807856e-01 0.000000e+00
outer loop
vertex 1.000000e+00 -3.238614e+01 0.000000e+00
vertex 1.000000e+00 -3.238614e+01 3.500000e+01
vertex -1.480503e-01 -3.215778e+01 3.500000e+01
endloop
endfacet
facet normal -5.555725e-01 -8.314681e-01 0.000000e+00
outer loop
vertex -1.480503e-01 -3.215778e+01 0.000000e+00
vertex -1.480503e-01 -3.215778e+01 3.500000e+01
vertex -1.121320e+00 -3.150746e+01 3.500000e+01
endloop
endfacet
facet normal -8.314692e-01 -5.555709e-01 0.000000e+00
outer loop
vertex -1.121320e+00 -3.150746e+01 0.000000e+00
vertex -1.121320e+00 -3.150746e+01 3.500000e+01
vertex -1.771639e+00 -3.053419e+01 3.500000e+01
endloop
endfacet
facet normal -9.807853e-01 -1.950903e-01 0.000000e+00
outer loop
vertex -1.771639e+00 -3.053419e+01 0.000000e+00
vertex -1.771639e+00 -3.053419e+01 3.500000e+01
vertex -2.000000e+00 -2.938614e+01 3.500000e+01
endloop
endfacet
facet normal -9.807853e-01 -1.950903e-01 -0.000000e+00
outer loop
vertex -2.000000e+00 -2.938614e+01 3.500000e+01
vertex -2.000000e+00 -2.938614e+01 0.000000e+00
vertex -1.771639e+00 -3.053419e+01 0.000000e+00
endloop
endfacet
facet normal -8.314692e-01 -5.555709e-01 -0.000000e+00
outer loop
vertex -1.771639e+00 -3.053419e+01 3.500000e+01
vertex -1.771639e+00 -3.053419e+01 0.000000e+00
vertex -1.121320e+00 -3.150746e+01 0.000000e+00
endloop
endfacet
facet normal -5.555725e-01 -8.314681e-01 -0.000000e+00
outer loop
vertex -1.121320e+00 -3.150746e+01 3.500000e+01
vertex -1.121320e+00 -3.150746e+01 0.000000e+00
vertex -1.480503e-01 -3.215778e+01 0.000000e+00
endloop
endfacet
facet normal -1.950885e-01 -9.807856e-01 -0.000000e+00
outer loop
vertex -1.480503e-01 -3.215778e+01 3.500000e+01
vertex -1.480503e-01 -3.215778e+01 0.000000e+00
vertex 1.000000e+00 -3.238614e+01 0.000000e+00
endloop
endfacet
facet normal 1.950904e-01 9.807853e-01 -0.000000e+00
outer loop
vertex 9.900000e+01 2.561386e+01 0.000000e+00
vertex 9.900000e+01 2.561386e+01 3.500000e+01
vertex 1.001480e+02 2.538550e+01 3.500000e+01
endloop
endfacet
facet normal 5.555696e-01 8.314700e-01 -0.000000e+00
outer loop
vertex 1.001480e+02 2.538550e+01 0.000000e+00
vertex 1.001480e+02 2.538550e+01 3.500000e+01
vertex 1.011213e+02 2.473518e+01 3.500000e+01
endloop
endfacet
facet normal 8.314707e-01 5.555685e-01 -0.000000e+00
outer loop
vertex 1.011213e+02 2.473518e+01 0.000000e+00
vertex 1.011213e+02 2.473518e+01 3.500000e+01
vertex 1.017716e+02 2.376191e+01 3.500000e+01
endloop
endfacet
facet normal 9.807850e-01 1.950917e-01 -0.000000e+00
outer loop
vertex 1.017716e+02 2.376191e+01 0.000000e+00
vertex 1.017716e+02 2.376191e+01 3.500000e+01
vertex 1.020000e+02 2.261386e+01 3.500000e+01
endloop
endfacet
facet normal 9.807850e-01 1.950917e-01 0.000000e+00
outer loop
vertex 1.020000e+02 2.261386e+01 3.500000e+01
vertex 1.020000e+02 2.261386e+01 0.000000e+00
vertex 1.017716e+02 2.376191e+01 0.000000e+00
endloop
endfacet
facet normal 8.314707e-01 5.555685e-01 0.000000e+00
outer loop
vertex 1.017716e+02 2.376191e+01 3.500000e+01
vertex 1.017716e+02 2.376191e+01 0.000000e+00
vertex 1.011213e+02 2.473518e+01 0.000000e+00
endloop
endfacet
facet normal 5.555696e-01 8.314700e-01 0.000000e+00
outer loop
vertex 1.011213e+02 2.473518e+01 3.500000e+01
vertex 1.011213e+02 2.473518e+01 0.000000e+00
vertex 1.001480e+02 2.538550e+01 0.000000e+00
endloop
endfacet
facet normal 1.950904e-01 9.807853e-01 0.000000e+00
outer loop
vertex 1.001480e+02 2.538550e+01 3.500000e+01
vertex 1.001480e+02 2.538550e+01 0.000000e+00
vertex 9.900000e+01 2.561386e+01 0.000000e+00
endloop
endfacet
facet normal 9.807850e-01 -1.950917e-01 0.000000e+00
outer loop
vertex 1.020000e+02 -2.938614e+01 0.000000e+00
vertex 1.020000e+02 -2.938614e+01 3.500000e+01
vertex 1.017716e+02 -3.053419e+01 3.500000e+01
endloop
endfacet
facet normal 8.314707e-01 -5.555685e-01 0.000000e+00
outer loop
vertex 1.017716e+02 -3.053419e+01 0.000000e+00
vertex 1.017716e+02 -3.053419e+01 3.500000e+01
vertex 1.011213e+02 -3.150746e+01 3.500000e+01
endloop
endfacet
facet normal 5.555708e-01 -8.314692e-01 0.000000e+00
outer loop
vertex 1.011213e+02 -3.150746e+01 0.000000e+00
vertex 1.011213e+02 -3.150746e+01 3.500000e+01
vertex 1.001480e+02 -3.215778e+01 3.500000e+01
endloop
endfacet
facet normal 1.950888e-01 -9.807855e-01 0.000000e+00
outer loop
vertex 1.001480e+02 -3.215778e+01 0.000000e+00
vertex 1.001480e+02 -3.215778e+01 3.500000e+01
vertex 9.900000e+01 -3.238614e+01 3.500000e+01
endloop
endfacet
facet normal 1.950888e-01 -9.807855e-01 0.000000e+00
outer loop
vertex 9.900000e+01 -3.238614e+01 3.500000e+01
vertex 9.900000e+01 -3.238614e+01 0.000000e+00
vertex 1.001480e+02 -3.215778e+01 0.000000e+00
endloop
endfacet
facet normal 5.555708e-01 -8.314692e-01 0.000000e+00
outer loop
vertex 1.001480e+02 -3.215778e+01 3.500000e+01
vertex 1.001480e+02 -3.215778e+01 0.000000e+00
vertex 1.011213e+02 -3.150746e+01 0.000000e+00
endloop
endfacet
facet normal 8.314707e-01 -5.555685e-01 0.000000e+00
outer loop
vertex 1.011213e+02 -3.150746e+01 3.500000e+01
vertex 1.011213e+02 -3.150746e+01 0.000000e+00
vertex 1.017716e+02 -3.053419e+01 0.000000e+00
endloop
endfacet
facet normal 9.807850e-01 -1.950917e-01 0.000000e+00
outer loop
vertex 1.017716e+02 -3.053419e+01 3.500000e+01
vertex 1.017716e+02 -3.053419e+01 0.000000e+00
vertex 1.020000e+02 -2.938614e+01 0.000000e+00
endloop
endfacet
endsolid SHAPR3D_SOLID
