solid SHAPR3D_SOLID
facet normal 1.000000e+00 0.000000e+00 0.000000e+00
outer loop
vertex 1.316414e+02 -1.710000e+02 5.000000e+00
vertex 1.316414e+02 -1.710000e+02 2.000000e+00
vertex 1.316414e+02 -1.170000e+02 2.000000e+00
endloop
endfacet
facet normal 1.000000e+00 0.000000e+00 -0.000000e+00
outer loop
vertex 1.316414e+02 -1.170000e+02 2.000000e+00
vertex 1.316414e+02 -1.170000e+02 5.000000e+00
vertex 1.316414e+02 -1.710000e+02 5.000000e+00
endloop
endfacet
facet normal 0.000000e+00 1.000000e+00 0.000000e+00
outer loop
vertex 1.316414e+02 -1.170000e+02 5.000000e+00
vertex 1.316414e+02 -1.170000e+02 2.000000e+00
vertex -1.835859e+01 -1.170000e+02 2.000000e+00
endloop
endfacet
facet normal 0.000000e+00 1.000000e+00 0.000000e+00
outer loop
vertex -1.835859e+01 -1.170000e+02 2.000000e+00
vertex -1.835859e+01 -1.170000e+02 5.000000e+00
vertex 1.316414e+02 -1.170000e+02 5.000000e+00
endloop
endfacet
facet normal -1.000000e+00 0.000000e+00 -0.000000e+00
outer loop
vertex -1.835859e+01 -1.170000e+02 5.000000e+00
vertex -1.835859e+01 -1.170000e+02 2.000000e+00
vertex -1.835859e+01 -1.710000e+02 2.000000e+00
endloop
endfacet
facet normal -1.000000e+00 0.000000e+00 0.000000e+00
outer loop
vertex -1.835859e+01 -1.710000e+02 2.000000e+00
vertex -1.835859e+01 -1.710000e+02 5.000000e+00
vertex -1.835859e+01 -1.170000e+02 5.000000e+00
endloop
endfacet
facet normal 0.000000e+00 -1.000000e+00 0.000000e+00
outer loop
vertex -1.835859e+01 -1.710000e+02 5.000000e+00
vertex -1.835859e+01 -1.710000e+02 2.000000e+00
vertex 1.316414e+02 -1.710000e+02 2.000000e+00
endloop
endfacet
facet normal 0.000000e+00 -1.000000e+00 0.000000e+00
outer loop
vertex 1.316414e+02 -1.710000e+02 2.000000e+00
vertex 1.316414e+02 -1.710000e+02 5.000000e+00
vertex -1.835859e+01 -1.710000e+02 5.000000e+00
endloop
endfacet
facet normal 0.000000e+00 0.000000e+00 1.000000e+00
outer loop
vertex -1.835859e+01 -1.710000e+02 5.000000e+00
vertex 1.316414e+02 -1.710000e+02 5.000000e+00
vertex 1.316414e+02 -1.170000e+02 5.000000e+00
endloop
endfacet
facet normal 0.000000e+00 0.000000e+00 1.000000e+00
outer loop
vertex 1.316414e+02 -1.170000e+02 5.000000e+00
vertex -1.835859e+01 -1.170000e+02 5.000000e+00
vertex -1.835859e+01 -1.710000e+02 5.000000e+00
endloop
endfacet
facet normal 0.000000e+00 0.000000e+00 -1.000000e+00
outer loop
vertex -1.835859e+01 -1.710000e+02 2.000000e+00
vertex -1.835859e+01 -1.170000e+02 2.000000e+00
vertex 1.316414e+02 -1.170000e+02 2.000000e+00
endloop
endfacet
facet normal 0.000000e+00 -0.000000e+00 -1.000000e+00
outer loop
vertex 1.316414e+02 -1.170000e+02 2.000000e+00
vertex 1.316414e+02 -1.710000e+02 2.000000e+00
vertex -1.835859e+01 -1.710000e+02 2.000000e+00
endloop
endfacet
facet normal 0.000000e+00 1.000000e+00 0.000000e+00
outer loop
vertex 1.316414e+02 -1.710000e+02 3.700000e+01
vertex 1.316414e+02 -1.710000e+02 2.000000e+00
vertex -1.835859e+01 -1.710000e+02 2.000000e+00
endloop
endfacet
facet normal 0.000000e+00 1.000000e+00 0.000000e+00
outer loop
vertex -1.835859e+01 -1.710000e+02 2.000000e+00
vertex -1.835859e+01 -1.710000e+02 3.700000e+01
vertex 1.316414e+02 -1.710000e+02 3.700000e+01
endloop
endfacet
facet normal 1.000000e+00 0.000000e+00 0.000000e+00
outer loop
vertex -1.835859e+01 -1.710000e+02 3.700000e+01
vertex -1.835859e+01 -1.710000e+02 2.000000e+00
vertex -1.835859e+01 -1.170000e+02 2.000000e+00
endloop
endfacet
facet normal 1.000000e+00 0.000000e+00 -0.000000e+00
outer loop
vertex -1.835859e+01 -1.170000e+02 2.000000e+00
vertex -1.835859e+01 -1.170000e+02 3.700000e+01
vertex -1.835859e+01 -1.710000e+02 3.700000e+01
endloop
endfacet
facet normal 0.000000e+00 -1.000000e+00 0.000000e+00
outer loop
vertex -1.835859e+01 -1.170000e+02 3.700000e+01
vertex -1.835859e+01 -1.170000e+02 2.000000e+00
vertex 1.316414e+02 -1.170000e+02 2.000000e+00
endloop
endfacet
facet normal 0.000000e+00 -1.000000e+00 0.000000e+00
outer loop
vertex 1.316414e+02 -1.170000e+02 2.000000e+00
vertex 1.316414e+02 -1.170000e+02 3.700000e+01
vertex -1.835859e+01 -1.170000e+02 3.700000e+01
endloop
endfacet
facet normal -1.000000e+00 0.000000e+00 -0.000000e+00
outer loop
vertex 1.316414e+02 -1.170000e+02 3.700000e+01
vertex 1.316414e+02 -1.170000e+02 2.000000e+00
vertex 1.316414e+02 -1.710000e+02 2.000000e+00
endloop
endfacet
facet normal -1.000000e+00 0.000000e+00 0.000000e+00
outer loop
vertex 1.316414e+02 -1.710000e+02 2.000000e+00
vertex 1.316414e+02 -1.710000e+02 3.700000e+01
vertex 1.316414e+02 -1.170000e+02 3.700000e+01
endloop
endfacet
facet normal 0.000000e+00 -0.000000e+00 1.000000e+00
outer loop
vertex -1.835859e+01 -1.170000e+02 3.700000e+01
vertex -1.735859e+01 -1.150000e+02 3.700000e+01
vertex -1.850664e+01 -1.152284e+02 3.700000e+01
endloop
endfacet
facet normal 0.000000e+00 0.000000e+00 1.000000e+00
outer loop
vertex -1.835859e+01 -1.170000e+02 3.700000e+01
vertex 1.316414e+02 -1.170000e+02 3.700000e+01
vertex 1.305073e+02 -1.150000e+02 3.700000e+01
endloop
endfacet
facet normal 0.000000e+00 0.000000e+00 1.000000e+00
outer loop
vertex -1.835859e+01 -1.170000e+02 3.700000e+01
vertex -2.035859e+01 -1.180000e+02 3.700000e+01
vertex -2.035859e+01 -1.700000e+02 3.700000e+01
endloop
endfacet
facet normal 0.000000e+00 0.000000e+00 1.000000e+00
outer loop
vertex -1.835859e+01 -1.170000e+02 3.700000e+01
vertex -1.947991e+01 -1.158787e+02 3.700000e+01
vertex -2.013023e+01 -1.168520e+02 3.700000e+01
endloop
endfacet
facet normal 0.000000e+00 0.000000e+00 1.000000e+00
outer loop
vertex 1.305073e+02 -1.150000e+02 3.700000e+01
vertex -1.735859e+01 -1.150000e+02 3.700000e+01
vertex -1.835859e+01 -1.170000e+02 3.700000e+01
endloop
endfacet
facet normal 0.000000e+00 0.000000e+00 1.000000e+00
outer loop
vertex 1.316414e+02 -1.170000e+02 3.700000e+01
vertex 1.326260e+02 -1.158761e+02 3.700000e+01
vertex 1.316537e+02 -1.152277e+02 3.700000e+01
endloop
endfacet
facet normal 0.000000e+00 0.000000e+00 1.000000e+00
outer loop
vertex -1.835859e+01 -1.710000e+02 3.700000e+01
vertex -2.035859e+01 -1.700000e+02 3.700000e+01
vertex -2.013023e+01 -1.711480e+02 3.700000e+01
endloop
endfacet
facet normal 0.000000e+00 0.000000e+00 1.000000e+00
outer loop
vertex -2.013023e+01 -1.168520e+02 3.700000e+01
vertex -2.035859e+01 -1.180000e+02 3.700000e+01
vertex -1.835859e+01 -1.170000e+02 3.700000e+01
endloop
endfacet
facet normal 0.000000e+00 0.000000e+00 1.000000e+00
outer loop
vertex 1.316414e+02 -1.710000e+02 3.700000e+01
vertex 1.306341e+02 -1.730000e+02 3.700000e+01
vertex 1.317838e+02 -1.727709e+02 3.700000e+01
endloop
endfacet
facet normal 0.000000e+00 0.000000e+00 1.000000e+00
outer loop
vertex -1.835859e+01 -1.710000e+02 3.700000e+01
vertex -1.735859e+01 -1.730000e+02 3.700000e+01
vertex 1.306341e+02 -1.730000e+02 3.700000e+01
endloop
endfacet
facet normal 0.000000e+00 0.000000e+00 1.000000e+00
outer loop
vertex 1.316537e+02 -1.152277e+02 3.700000e+01
vertex 1.305073e+02 -1.150000e+02 3.700000e+01
vertex 1.316414e+02 -1.170000e+02 3.700000e+01
endloop
endfacet
facet normal -0.000000e+00 0.000000e+00 1.000000e+00
outer loop
vertex -2.035859e+01 -1.700000e+02 3.700000e+01
vertex -1.835859e+01 -1.710000e+02 3.700000e+01
vertex -1.835859e+01 -1.170000e+02 3.700000e+01
endloop
endfacet
facet normal 0.000000e+00 -0.000000e+00 1.000000e+00
outer loop
vertex 1.306341e+02 -1.730000e+02 3.700000e+01
vertex 1.316414e+02 -1.710000e+02 3.700000e+01
vertex -1.835859e+01 -1.710000e+02 3.700000e+01
endloop
endfacet
facet normal 0.000000e+00 0.000000e+00 1.000000e+00
outer loop
vertex -1.835859e+01 -1.710000e+02 3.700000e+01
vertex -1.947991e+01 -1.721213e+02 3.700000e+01
vertex -1.850664e+01 -1.727716e+02 3.700000e+01
endloop
endfacet
facet normal 0.000000e+00 0.000000e+00 1.000000e+00
outer loop
vertex 1.316414e+02 -1.710000e+02 3.700000e+01
vertex 1.336341e+02 -1.699927e+02 3.700000e+01
vertex 1.335073e+02 -1.179927e+02 3.700000e+01
endloop
endfacet
facet normal 0.000000e+00 0.000000e+00 1.000000e+00
outer loop
vertex 1.316414e+02 -1.710000e+02 3.700000e+01
vertex 1.327580e+02 -1.721187e+02 3.700000e+01
vertex 1.334078e+02 -1.711430e+02 3.700000e+01
endloop
endfacet
facet normal -0.000000e+00 0.000000e+00 1.000000e+00
outer loop
vertex -2.013023e+01 -1.711480e+02 3.700000e+01
vertex -1.947991e+01 -1.721213e+02 3.700000e+01
vertex -1.835859e+01 -1.710000e+02 3.700000e+01
endloop
endfacet
facet normal -0.000000e+00 0.000000e+00 1.000000e+00
outer loop
vertex -1.850664e+01 -1.727716e+02 3.700000e+01
vertex -1.735859e+01 -1.730000e+02 3.700000e+01
vertex -1.835859e+01 -1.710000e+02 3.700000e+01
endloop
endfacet
facet normal -0.000000e+00 0.000000e+00 1.000000e+00
outer loop
vertex 1.316414e+02 -1.170000e+02 3.700000e+01
vertex 1.335073e+02 -1.179927e+02 3.700000e+01
vertex 1.332768e+02 -1.168469e+02 3.700000e+01
endloop
endfacet
facet normal 0.000000e+00 -0.000000e+00 1.000000e+00
outer loop
vertex 1.334078e+02 -1.711430e+02 3.700000e+01
vertex 1.336341e+02 -1.699927e+02 3.700000e+01
vertex 1.316414e+02 -1.710000e+02 3.700000e+01
endloop
endfacet
facet normal 0.000000e+00 -0.000000e+00 1.000000e+00
outer loop
vertex 1.317838e+02 -1.727709e+02 3.700000e+01
vertex 1.327580e+02 -1.721187e+02 3.700000e+01
vertex 1.316414e+02 -1.710000e+02 3.700000e+01
endloop
endfacet
facet normal 0.000000e+00 0.000000e+00 1.000000e+00
outer loop
vertex 1.335073e+02 -1.179927e+02 3.700000e+01
vertex 1.316414e+02 -1.170000e+02 3.700000e+01
vertex 1.316414e+02 -1.710000e+02 3.700000e+01
endloop
endfacet
facet normal 0.000000e+00 0.000000e+00 1.000000e+00
outer loop
vertex 1.332768e+02 -1.168469e+02 3.700000e+01
vertex 1.326260e+02 -1.158761e+02 3.700000e+01
vertex 1.316414e+02 -1.170000e+02 3.700000e+01
endloop
endfacet
facet normal 0.000000e+00 0.000000e+00 1.000000e+00
outer loop
vertex -1.850664e+01 -1.152284e+02 3.700000e+01
vertex -1.947991e+01 -1.158787e+02 3.700000e+01
vertex -1.835859e+01 -1.170000e+02 3.700000e+01
endloop
endfacet
facet normal 0.000000e+00 0.000000e+00 -1.000000e+00
outer loop
vertex -1.835859e+01 -1.170000e+02 2.000000e+00
vertex -1.735859e+01 -1.150000e+02 2.000000e+00
vertex 1.305073e+02 -1.150000e+02 2.000000e+00
endloop
endfacet
facet normal 0.000000e+00 0.000000e+00 -1.000000e+00
outer loop
vertex -1.835859e+01 -1.170000e+02 2.000000e+00
vertex -1.947991e+01 -1.158787e+02 2.000000e+00
vertex -1.850664e+01 -1.152284e+02 2.000000e+00
endloop
endfacet
facet normal 0.000000e+00 0.000000e+00 -1.000000e+00
outer loop
vertex 1.316414e+02 -1.710000e+02 2.000000e+00
vertex 1.336341e+02 -1.699927e+02 2.000000e+00
vertex 1.334078e+02 -1.711430e+02 2.000000e+00
endloop
endfacet
facet normal 0.000000e+00 0.000000e+00 -1.000000e+00
outer loop
vertex 1.316414e+02 -1.710000e+02 2.000000e+00
vertex 1.316414e+02 -1.170000e+02 2.000000e+00
vertex 1.335073e+02 -1.179927e+02 2.000000e+00
endloop
endfacet
facet normal 0.000000e+00 0.000000e+00 -1.000000e+00
outer loop
vertex -1.835859e+01 -1.710000e+02 2.000000e+00
vertex 1.316414e+02 -1.710000e+02 2.000000e+00
vertex 1.306341e+02 -1.730000e+02 2.000000e+00
endloop
endfacet
facet normal 0.000000e+00 0.000000e+00 -1.000000e+00
outer loop
vertex 1.316414e+02 -1.710000e+02 2.000000e+00
vertex 1.327580e+02 -1.721187e+02 2.000000e+00
vertex 1.317838e+02 -1.727709e+02 2.000000e+00
endloop
endfacet
facet normal -0.000000e+00 0.000000e+00 -1.000000e+00
outer loop
vertex -1.835859e+01 -1.170000e+02 2.000000e+00
vertex -2.035859e+01 -1.180000e+02 2.000000e+00
vertex -2.013023e+01 -1.168520e+02 2.000000e+00
endloop
endfacet
facet normal 0.000000e+00 -0.000000e+00 -1.000000e+00
outer loop
vertex -1.835859e+01 -1.170000e+02 2.000000e+00
vertex -1.835859e+01 -1.710000e+02 2.000000e+00
vertex -2.035859e+01 -1.700000e+02 2.000000e+00
endloop
endfacet
facet normal 0.000000e+00 0.000000e+00 -1.000000e+00
outer loop
vertex 1.316414e+02 -1.170000e+02 2.000000e+00
vertex 1.305073e+02 -1.150000e+02 2.000000e+00
vertex 1.316537e+02 -1.152277e+02 2.000000e+00
endloop
endfacet
facet normal 0.000000e+00 0.000000e+00 -1.000000e+00
outer loop
vertex -1.850664e+01 -1.152284e+02 2.000000e+00
vertex -1.735859e+01 -1.150000e+02 2.000000e+00
vertex -1.835859e+01 -1.170000e+02 2.000000e+00
endloop
endfacet
facet normal 0.000000e+00 -0.000000e+00 -1.000000e+00
outer loop
vertex 1.335073e+02 -1.179927e+02 2.000000e+00
vertex 1.336341e+02 -1.699927e+02 2.000000e+00
vertex 1.316414e+02 -1.710000e+02 2.000000e+00
endloop
endfacet
facet normal 0.000000e+00 0.000000e+00 -1.000000e+00
outer loop
vertex 1.316414e+02 -1.170000e+02 2.000000e+00
vertex 1.326260e+02 -1.158761e+02 2.000000e+00
vertex 1.332768e+02 -1.168469e+02 2.000000e+00
endloop
endfacet
facet normal 0.000000e+00 -0.000000e+00 -1.000000e+00
outer loop
vertex -1.835859e+01 -1.710000e+02 2.000000e+00
vertex -1.735859e+01 -1.730000e+02 2.000000e+00
vertex -1.850664e+01 -1.727716e+02 2.000000e+00
endloop
endfacet
facet normal -0.000000e+00 0.000000e+00 -1.000000e+00
outer loop
vertex 1.317838e+02 -1.727709e+02 2.000000e+00
vertex 1.306341e+02 -1.730000e+02 2.000000e+00
vertex 1.316414e+02 -1.710000e+02 2.000000e+00
endloop
endfacet
facet normal 0.000000e+00 0.000000e+00 -1.000000e+00
outer loop
vertex -2.035859e+01 -1.700000e+02 2.000000e+00
vertex -2.035859e+01 -1.180000e+02 2.000000e+00
vertex -1.835859e+01 -1.170000e+02 2.000000e+00
endloop
endfacet
facet normal 0.000000e+00 0.000000e+00 -1.000000e+00
outer loop
vertex -1.835859e+01 -1.710000e+02 2.000000e+00
vertex -1.947991e+01 -1.721213e+02 2.000000e+00
vertex -2.013023e+01 -1.711480e+02 2.000000e+00
endloop
endfacet
facet normal 0.000000e+00 -0.000000e+00 -1.000000e+00
outer loop
vertex 1.305073e+02 -1.150000e+02 2.000000e+00
vertex 1.316414e+02 -1.170000e+02 2.000000e+00
vertex -1.835859e+01 -1.170000e+02 2.000000e+00
endloop
endfacet
facet normal 0.000000e+00 -0.000000e+00 -1.000000e+00
outer loop
vertex 1.332768e+02 -1.168469e+02 2.000000e+00
vertex 1.335073e+02 -1.179927e+02 2.000000e+00
vertex 1.316414e+02 -1.170000e+02 2.000000e+00
endloop
endfacet
facet normal 0.000000e+00 0.000000e+00 -1.000000e+00
outer loop
vertex 1.306341e+02 -1.730000e+02 2.000000e+00
vertex -1.735859e+01 -1.730000e+02 2.000000e+00
vertex -1.835859e+01 -1.710000e+02 2.000000e+00
endloop
endfacet
facet normal 0.000000e+00 0.000000e+00 -1.000000e+00
outer loop
vertex -2.013023e+01 -1.711480e+02 2.000000e+00
vertex -2.035859e+01 -1.700000e+02 2.000000e+00
vertex -1.835859e+01 -1.710000e+02 2.000000e+00
endloop
endfacet
facet normal -0.000000e+00 0.000000e+00 -1.000000e+00
outer loop
vertex 1.334078e+02 -1.711430e+02 2.000000e+00
vertex 1.327580e+02 -1.721187e+02 2.000000e+00
vertex 1.316414e+02 -1.710000e+02 2.000000e+00
endloop
endfacet
facet normal 0.000000e+00 0.000000e+00 -1.000000e+00
outer loop
vertex -2.013023e+01 -1.168520e+02 2.000000e+00
vertex -1.947991e+01 -1.158787e+02 2.000000e+00
vertex -1.835859e+01 -1.170000e+02 2.000000e+00
endloop
endfacet
facet normal 0.000000e+00 0.000000e+00 -1.000000e+00
outer loop
vertex -1.850664e+01 -1.727716e+02 2.000000e+00
vertex -1.947991e+01 -1.721213e+02 2.000000e+00
vertex -1.835859e+01 -1.710000e+02 2.000000e+00
endloop
endfacet
facet normal 0.000000e+00 -0.000000e+00 -1.000000e+00
outer loop
vertex 1.316537e+02 -1.152277e+02 2.000000e+00
vertex 1.326260e+02 -1.158761e+02 2.000000e+00
vertex 1.316414e+02 -1.170000e+02 2.000000e+00
endloop
endfacet
facet normal -1.000000e+00 0.000000e+00 -0.000000e+00
outer loop
vertex -2.035859e+01 -1.180000e+02 3.700000e+01
vertex -2.035859e+01 -1.180000e+02 2.000000e+00
vertex -2.035859e+01 -1.700000e+02 2.000000e+00
endloop
endfacet
facet normal -1.000000e+00 0.000000e+00 0.000000e+00
outer loop
vertex -2.035859e+01 -1.700000e+02 2.000000e+00
vertex -2.035859e+01 -1.700000e+02 3.700000e+01
vertex -2.035859e+01 -1.180000e+02 3.700000e+01
endloop
endfacet
facet normal 0.000000e+00 -1.000000e+00 0.000000e+00
outer loop
vertex 1.306341e+02 -1.730000e+02 2.000000e+00
vertex 1.306341e+02 -1.730000e+02 3.700000e+01
vertex -1.735859e+01 -1.730000e+02 3.700000e+01
endloop
endfacet
facet normal 0.000000e+00 -1.000000e+00 0.000000e+00
outer loop
vertex -1.735859e+01 -1.730000e+02 3.700000e+01
vertex -1.735859e+01 -1.730000e+02 2.000000e+00
vertex 1.306341e+02 -1.730000e+02 2.000000e+00
endloop
endfacet
facet normal 9.999970e-01 2.438171e-03 -0.000000e+00
outer loop
vertex 1.335073e+02 -1.179927e+02 2.000000e+00
vertex 1.335073e+02 -1.179927e+02 3.700000e+01
vertex 1.336341e+02 -1.699927e+02 3.700000e+01
endloop
endfacet
facet normal 9.999970e-01 2.438171e-03 0.000000e+00
outer loop
vertex 1.336341e+02 -1.699927e+02 3.700000e+01
vertex 1.336341e+02 -1.699927e+02 2.000000e+00
vertex 1.335073e+02 -1.179927e+02 2.000000e+00
endloop
endfacet
facet normal 0.000000e+00 1.000000e+00 0.000000e+00
outer loop
vertex -1.735859e+01 -1.150000e+02 2.000000e+00
vertex -1.735859e+01 -1.150000e+02 3.700000e+01
vertex 1.305073e+02 -1.150000e+02 3.700000e+01
endloop
endfacet
facet normal 0.000000e+00 1.000000e+00 0.000000e+00
outer loop
vertex 1.305073e+02 -1.150000e+02 3.700000e+01
vertex 1.305073e+02 -1.150000e+02 2.000000e+00
vertex -1.735859e+01 -1.150000e+02 2.000000e+00
endloop
endfacet
facet normal -9.807850e-01 -1.950916e-01 -0.000000e+00
outer loop
vertex -2.035859e+01 -1.700000e+02 3.700000e+01
vertex -2.035859e+01 -1.700000e+02 2.000000e+00
vertex -2.013023e+01 -1.711480e+02 2.000000e+00
endloop
endfacet
facet normal -8.314728e-01 -5.555655e-01 -0.000000e+00
outer loop
vertex -2.013023e+01 -1.711480e+02 3.700000e+01
vertex -2.013023e+01 -1.711480e+02 2.000000e+00
vertex -1.947991e+01 -1.721213e+02 2.000000e+00
endloop
endfacet
facet normal -5.555677e-01 -8.314713e-01 -0.000000e+00
outer loop
vertex -1.947991e+01 -1.721213e+02 3.700000e+01
vertex -1.947991e+01 -1.721213e+02 2.000000e+00
vertex -1.850664e+01 -1.727716e+02 2.000000e+00
endloop
endfacet
facet normal -1.950914e-01 -9.807851e-01 -0.000000e+00
outer loop
vertex -1.850664e+01 -1.727716e+02 3.700000e+01
vertex -1.850664e+01 -1.727716e+02 2.000000e+00
vertex -1.735859e+01 -1.730000e+02 2.000000e+00
endloop
endfacet
facet normal -1.950914e-01 -9.807851e-01 0.000000e+00
outer loop
vertex -1.735859e+01 -1.730000e+02 2.000000e+00
vertex -1.735859e+01 -1.730000e+02 3.700000e+01
vertex -1.850664e+01 -1.727716e+02 3.700000e+01
endloop
endfacet
facet normal -5.555677e-01 -8.314713e-01 0.000000e+00
outer loop
vertex -1.850664e+01 -1.727716e+02 2.000000e+00
vertex -1.850664e+01 -1.727716e+02 3.700000e+01
vertex -1.947991e+01 -1.721213e+02 3.700000e+01
endloop
endfacet
facet normal -8.314728e-01 -5.555655e-01 0.000000e+00
outer loop
vertex -1.947991e+01 -1.721213e+02 2.000000e+00
vertex -1.947991e+01 -1.721213e+02 3.700000e+01
vertex -2.013023e+01 -1.711480e+02 3.700000e+01
endloop
endfacet
facet normal -9.807850e-01 -1.950916e-01 0.000000e+00
outer loop
vertex -2.013023e+01 -1.711480e+02 2.000000e+00
vertex -2.013023e+01 -1.711480e+02 3.700000e+01
vertex -2.035859e+01 -1.700000e+02 3.700000e+01
endloop
endfacet
facet normal 1.953902e-01 -9.807256e-01 0.000000e+00
outer loop
vertex 1.306341e+02 -1.730000e+02 3.700000e+01
vertex 1.306341e+02 -1.730000e+02 2.000000e+00
vertex 1.317838e+02 -1.727709e+02 2.000000e+00
endloop
endfacet
facet normal 5.563211e-01 -8.309674e-01 0.000000e+00
outer loop
vertex 1.317838e+02 -1.727709e+02 3.700000e+01
vertex 1.317838e+02 -1.727709e+02 2.000000e+00
vertex 1.327580e+02 -1.721187e+02 2.000000e+00
endloop
endfacet
facet normal 8.323205e-01 -5.542946e-01 0.000000e+00
outer loop
vertex 1.327580e+02 -1.721187e+02 3.700000e+01
vertex 1.327580e+02 -1.721187e+02 2.000000e+00
vertex 1.334078e+02 -1.711430e+02 2.000000e+00
endloop
endfacet
facet normal 9.811990e-01 -1.929989e-01 0.000000e+00
outer loop
vertex 1.334078e+02 -1.711430e+02 3.700000e+01
vertex 1.334078e+02 -1.711430e+02 2.000000e+00
vertex 1.336341e+02 -1.699927e+02 2.000000e+00
endloop
endfacet
facet normal 9.811990e-01 -1.929989e-01 0.000000e+00
outer loop
vertex 1.336341e+02 -1.699927e+02 2.000000e+00
vertex 1.336341e+02 -1.699927e+02 3.700000e+01
vertex 1.334078e+02 -1.711430e+02 3.700000e+01
endloop
endfacet
facet normal 8.323205e-01 -5.542946e-01 0.000000e+00
outer loop
vertex 1.334078e+02 -1.711430e+02 2.000000e+00
vertex 1.334078e+02 -1.711430e+02 3.700000e+01
vertex 1.327580e+02 -1.721187e+02 3.700000e+01
endloop
endfacet
facet normal 5.563211e-01 -8.309674e-01 0.000000e+00
outer loop
vertex 1.327580e+02 -1.721187e+02 2.000000e+00
vertex 1.327580e+02 -1.721187e+02 3.700000e+01
vertex 1.317838e+02 -1.727709e+02 3.700000e+01
endloop
endfacet
facet normal 1.953902e-01 -9.807256e-01 0.000000e+00
outer loop
vertex 1.317838e+02 -1.727709e+02 2.000000e+00
vertex 1.317838e+02 -1.727709e+02 3.700000e+01
vertex 1.306341e+02 -1.730000e+02 3.700000e+01
endloop
endfacet
facet normal 1.947903e-01 9.808449e-01 -0.000000e+00
outer loop
vertex 1.305073e+02 -1.150000e+02 2.000000e+00
vertex 1.305073e+02 -1.150000e+02 3.700000e+01
vertex 1.316537e+02 -1.152277e+02 3.700000e+01
endloop
endfacet
facet normal 5.548102e-01 8.319770e-01 -0.000000e+00
outer loop
vertex 1.316537e+02 -1.152277e+02 2.000000e+00
vertex 1.316537e+02 -1.152277e+02 3.700000e+01
vertex 1.326260e+02 -1.158761e+02 3.700000e+01
endloop
endfacet
facet normal 8.306215e-01 5.568375e-01 -0.000000e+00
outer loop
vertex 1.326260e+02 -1.158761e+02 2.000000e+00
vertex 1.326260e+02 -1.158761e+02 3.700000e+01
vertex 1.332768e+02 -1.168469e+02 3.700000e+01
endloop
endfacet
facet normal 9.803674e-01 1.971793e-01 -0.000000e+00
outer loop
vertex 1.332768e+02 -1.168469e+02 2.000000e+00
vertex 1.332768e+02 -1.168469e+02 3.700000e+01
vertex 1.335073e+02 -1.179927e+02 3.700000e+01
endloop
endfacet
facet normal 9.803674e-01 1.971793e-01 0.000000e+00
outer loop
vertex 1.335073e+02 -1.179927e+02 3.700000e+01
vertex 1.335073e+02 -1.179927e+02 2.000000e+00
vertex 1.332768e+02 -1.168469e+02 2.000000e+00
endloop
endfacet
facet normal 8.306215e-01 5.568375e-01 0.000000e+00
outer loop
vertex 1.332768e+02 -1.168469e+02 3.700000e+01
vertex 1.332768e+02 -1.168469e+02 2.000000e+00
vertex 1.326260e+02 -1.158761e+02 2.000000e+00
endloop
endfacet
facet normal 5.548102e-01 8.319770e-01 0.000000e+00
outer loop
vertex 1.326260e+02 -1.158761e+02 3.700000e+01
vertex 1.326260e+02 -1.158761e+02 2.000000e+00
vertex 1.316537e+02 -1.152277e+02 2.000000e+00
endloop
endfacet
facet normal 1.947903e-01 9.808449e-01 0.000000e+00
outer loop
vertex 1.316537e+02 -1.152277e+02 3.700000e+01
vertex 1.316537e+02 -1.152277e+02 2.000000e+00
vertex 1.305073e+02 -1.150000e+02 2.000000e+00
endloop
endfacet
facet normal -9.807853e-01 1.950904e-01 0.000000e+00
outer loop
vertex -2.035859e+01 -1.180000e+02 2.000000e+00
vertex -2.035859e+01 -1.180000e+02 3.700000e+01
vertex -2.013023e+01 -1.168520e+02 3.700000e+01
endloop
endfacet
facet normal -8.314708e-01 5.555685e-01 0.000000e+00
outer loop
vertex -2.013023e+01 -1.168520e+02 2.000000e+00
vertex -2.013023e+01 -1.168520e+02 3.700000e+01
vertex -1.947991e+01 -1.158787e+02 3.700000e+01
endloop
endfacet
facet normal -5.555677e-01 8.314713e-01 0.000000e+00
outer loop
vertex -1.947991e+01 -1.158787e+02 2.000000e+00
vertex -1.947991e+01 -1.158787e+02 3.700000e+01
vertex -1.850664e+01 -1.152284e+02 3.700000e+01
endloop
endfacet
facet normal -1.950914e-01 9.807851e-01 0.000000e+00
outer loop
vertex -1.850664e+01 -1.152284e+02 2.000000e+00
vertex -1.850664e+01 -1.152284e+02 3.700000e+01
vertex -1.735859e+01 -1.150000e+02 3.700000e+01
endloop
endfacet
facet normal -1.950914e-01 9.807851e-01 0.000000e+00
outer loop
vertex -1.735859e+01 -1.150000e+02 3.700000e+01
vertex -1.735859e+01 -1.150000e+02 2.000000e+00
vertex -1.850664e+01 -1.152284e+02 2.000000e+00
endloop
endfacet
facet normal -5.555677e-01 8.314713e-01 0.000000e+00
outer loop
vertex -1.850664e+01 -1.152284e+02 3.700000e+01
vertex -1.850664e+01 -1.152284e+02 2.000000e+00
vertex -1.947991e+01 -1.158787e+02 2.000000e+00
endloop
endfacet
facet normal -8.314708e-01 5.555685e-01 0.000000e+00
outer loop
vertex -1.947991e+01 -1.158787e+02 3.700000e+01
vertex -1.947991e+01 -1.158787e+02 2.000000e+00
vertex -2.013023e+01 -1.168520e+02 2.000000e+00
endloop
endfacet
facet normal -9.807853e-01 1.950904e-01 0.000000e+00
outer loop
vertex -2.013023e+01 -1.168520e+02 3.700000e+01
vertex -2.013023e+01 -1.168520e+02 2.000000e+00
vertex -2.035859e+01 -1.180000e+02 2.000000e+00
endloop
endfacet
endsolid SHAPR3D_SOLID
